<svg xmlns="http://www.w3.org/2000/svg" xmlns:xlink="http://www.w3.org/1999/xlink" version="1.1" width="648pt" height="864pt" viewBox="0 0 648 864">
<defs>
<clipPath id="clip_0">
<path transform="matrix(1,0,0,-1,0,864)" d="M0 864H648V0H0Z"/>
</clipPath>
</defs>
<g id="layer_1" data-name="">
<g clip-path="url(#clip_0)">
<path transform="matrix(1,0,0,-1,324.1833,148.6842)" stroke-width=".598" stroke-linecap="butt" stroke-miterlimit="2.613" stroke-linejoin="miter" fill="none" stroke="#ffc20d" d="M0 0C35.596 0 64.454-26.486 64.454-59.157 64.454-91.829 35.596-118.315 0-118.315-35.597-118.315-64.454-91.829-64.454-59.157-64.454-26.486-35.597 0 0 0Z"/>
<path transform="matrix(1,0,0,-1,364.2243,228.93323)" d="M0 0C-6.551 .388-13.404 2.228-17.001 6.565-19.285 12.789-17.964 18.48-9.509 19.956-.269 19.365-4.954 5.733 5.553 6.794 17.229 8.907 1.58 21.743 11.017 21.458 22.12 6.918 14.651 .494 0 0M-34.269-20.348C-38.032-15.409-40.747-9.349-39.306-4.062-35.436 1.464-29.77 4.073-23.233-1.065-17.962-8.056-32.487-13.215-25.021-20.083-15.928-27.131-14.784-7.896-9.13-14.838-14.564-31.878-24.696-30.54-34.269-20.348M-41.755 2.351C-52.892 2.351-61.953 10.689-61.953 20.937-61.953 31.184-52.892 39.521-41.755 39.521-30.618 39.521-21.557 31.184-21.557 20.937-21.557 10.689-30.618 2.351-41.755 2.351M-65.539-15.799C-65.439-26.723-48.798-14.985-50.85-23.444-68.474-30.765-73.97-22.839-71.786-9.533-70.156-3.696-66.917 2.144-61.608 4.585-54.521 5.492-48.672 3.248-48.658-4.65-51.001-12.876-64.73-6.125-65.539-15.799M-82.092-4.575C-100.477 .948-98.699 10.2-87.299 18.66-81.801 21.956-75.117 24.256-69.404 22.767-63.509 19.043-60.847 13.762-66.649 7.928-74.427 3.313-79.588 16.801-87.301 10.167-95.264 2.049-74.354 .393-82.092-4.575M-80.599 45.294C-74.046 44.904-67.195 43.065-63.596 38.73-61.311 32.504-62.632 26.813-71.087 25.337-80.327 25.927-75.643 39.561-86.15 38.498-97.827 36.384-82.177 23.55-91.613 23.833-102.717 38.373-95.249 44.797-80.599 45.294M-52.789 64.464C-48.313 60.056-44.703 54.403-45.327 48.983-48.319 43.016-53.533 39.706-60.787 43.958-67.069 50.205-53.469 57.174-61.907 63.018-71.983 68.833-70.191 49.64-76.844 55.79-74.055 73.36-63.817 73.33-52.789 64.464M-37.497 69.504C-21.333 79.258-14.557 72.216-14.451 58.761-15.069 52.761-17.276 46.531-22.105 43.357-28.952 41.446-35.112 42.826-36.467 50.627-35.552 59.086-20.842 54.385-21.687 64.055-23.643 74.831-38.085 60.854-37.497 69.504M-1.684 53.553C17.211 49.742 16.447 40.372 6.025 30.91 .913 27.128-5.489 24.227-11.334 25.185-17.604 28.352-20.829 33.362-15.691 39.698-8.451 45.002-1.851 32.054 5.103 39.361 12.144 48.169-8.842 47.901-1.684 53.553M-40.041 80.249C-75.638 80.249-104.495 53.763-104.495 21.092-104.495-11.58-75.638-38.066-40.041-38.066-4.445-38.066 24.413-11.58 24.413 21.092 24.413 53.763-4.445 80.249-40.041 80.249" fill="#ffc20d" fill-rule="evenodd"/>
<path transform="matrix(1,0,0,-1,331.4825,210.54212)" d="M0 0C-1.657 0-3.001 1.235-3.001 2.756-3.001 4.277-1.657 5.51 0 5.51 1.66 5.51 3.003 4.277 3.003 2.756 3.003 1.235 1.66 0 0 0M-7.967 7.315C-9.627 7.315-10.969 8.546-10.969 10.068-10.969 11.591-9.627 12.825-7.967 12.825-6.31 12.825-4.967 11.591-4.967 10.068-4.967 8.546-6.31 7.315-7.967 7.315M-7.967-7.309C-9.627-7.309-10.969-6.077-10.969-4.556-10.969-3.033-9.627-1.799-7.967-1.799-6.31-1.799-4.967-3.033-4.967-4.556-4.967-6.077-6.31-7.309-7.967-7.309M-15.932 0C-17.592 0-18.936 1.235-18.936 2.756-18.936 4.277-17.592 5.51-15.932 5.51-14.275 5.51-12.932 4.277-12.932 2.756-12.932 1.235-14.275 0-15.932 0M-9.013 19.984C-19.519 19.984-28.066 12.161-28.066 2.545-28.066-7.071-19.519-14.894-9.013-14.894 1.493-14.894 10.04-7.071 10.04 2.545 10.04 12.161 1.493 19.984-9.013 19.984" fill="#ffc20d" fill-rule="evenodd"/>
<path transform="matrix(1,0,0,-1,466.8542,560.5617)" d="M0 0C-.621-2.493-2.871-4.4-6.24-5.207-10.041-6.12-14.375-5.663-18.471-3.91-25.207-1.017-31.752 3.577-38.688 8.885-37.83 5.435-36.164 2.319-33.694-.435-42.732 2.359-49.438 9.215-55.657 16.909-57.056 10.772-60.982 8.028-66.796 7.294-67.143 12.014-66.119 17.922-71.885 21.466-72.942 14.551-76.033 9.602-83.115 8.976-82.944 18.039-84.148 24.243-90.354 25.371-90.099 21.51-90.502 17.818-91.85 15.348-95.347 17.896-96.466 21.383-101.882 22.588-111.944 24.84-112.822 14.358-109.968 8.931-105.749 13.383-99.181 16.544-93.352 13.182-99.049 7.626-99.446 1.564-93.845-3.689-93.901-.585-92.854 2.931-91.304 5.69-88.547 2.463-85.8-1.889-81.917-3.474-72.709-7.225-62.986-4.378-53.015-3.861-41.314-3.256-29.911-3.838-20.716-10.197-12.58-15.82-9.134-22.958-12.099-31.678-13.826-36.753-17.602-41.152-21.579-45.469-14.694-53.491-10.383-62.68-10.256-72.801-10.092-85.924-14.654-92.754-19.49-106.325-22.413-114.515-25.391-130.899-9.453-124.971-8.002-128.604-8.041-133.237-11.87-136.323-20.166-143.007-24.113-149.219-17.717-157.677-12.993-163.924-22.53-166.678-28.225-165.408-30.312-164.935-32.65-164.467-34.689-165.267-37.087-166.201-39.675-165.421-41.831-164.403-43.003-163.848-44.119-163.776-45.278-164.216-48.571-165.469-51.682-165.28-54.579-163.719-57.411-164.774-59.843-165.31-61.867-165.321-63.569-159.345-59.531-154.511-52.804-153.745-46.727-153.056-41.771-151.086-41.783-146.717L-42.441-129.469C-43.125-125.88-48.471-122.798-55.39-119.887-55.752-119.735-56.109-119.579-56.459-119.424-57.04-122.835-58.355-126.144-60.91-129.271-63.387-132.297-62.764-134.207-59.575-134.385-57.882-134.488-56.392-134.207-54.694-134.207-55.024-137.16-56.167-140.113-58.771-142.524-60.848-144.449-62.943-146.193-62.78-148.103L-61.982-157.638C-61.556-162.695-66.54-164.113-69.473-163.448-74.961-162.205-76.593-163.78-80.176-164.38-82.575-164.774-84.732-164.318-86.597-163.217-87.761-162.11-88.927-161.946-90.079-162.75-91.861-163.999-94.319-164.698-97.035-163.678-99.527-162.745-100.096-162.923-101.395-163.382-105.364-164.769-106.826-161.985-106.666-158.798-106.502-155.303-104.656-153.468-100.783-153.287L-89.274-152.754C-86.097-152.603-85.577-151.546-85.529-149.732L-84.994-129.971C-93.35-120.821-100.886-111.436-102.111-100.754-114.766-101.959-130.905-107.719-145.173-113.068-151.83-115.567-158.59-117.075-165.296-118.059-168.634-122.786-170.834-127.104-170.036-130.414-169.339-133.286-165.373-133.951-160.142-133.659-160.715-138.65-165.199-143.117-172.106-147.523-174.866-149.284-175.214-151.538-174.077-154.183-170.462-162.519-180.221-163.126-186.589-160.497-187.869-160.032-189.052-160.296-190.425-160.672-193.379-161.49-196.008-159.756-198.283-160.408-200.806-161.126-203.102-161.345-205.77-160.149-209.406-161.697-213.037-162.264-216.675-160.672-225.595-166.228-221.815-154.268-212.837-151.815-202.414-154.894-196.513-148.42-197.132-139.743-197.58-133.474-198.468-126.795-199.898-120.515-206.699-120.051-212.946-118.54-218.491-115.723-222.774-118.553-228.444-124.541-231.045-124.206-233.687-123.861-247.378-107.376-251.585-105.605-253.367-104.858-255.532-106.389-257.508-107.491-258.1-104.483-257.81-101.371-255.598-98.017L-262.268-90.547C-263.252-89.442-265.085-89.548-266.474-90.506-266.654-90.631-266.842-90.747-267.037-90.859L-267.277-91.453C-267.847-93.877-268.155-97.272-265.376-96.917-255.799-95.702-258.793-105.212-265.174-101.827-266.602-101.068-267.226-101.247-267.102-102.74-266.881-105.329-265.837-107.541-264.117-109.298-262.894-110.547-262.141-111.915-263.066-112.958-264.774-114.875-265.6-116.309-265.523-117.988-265.396-120.732-264.432-123.847-261.309-123.475-259.065-123.211-256.909-121.759-255.333-124.246-254.468-125.616-254.121-127.729-255.698-128.81-258.394-130.679-262.372-130.417-266.4-129.727-266.918-133.129-260.908-135.399-261.662-138.138-262.102-139.731-264.924-139.193-267.089-139.796-268.949-140.315-269.398-142.519-270.612-143.907-271.336-144.737-273.215-145.653-274.822-143.757-276.741-141.497-277.846-139.289-281.67-139.487-283.354-139.573-284.296-137.896-283.423-136.449-281.856-133.869-277.395-132.12-278.685-129.424-279.52-127.669-282.828-130.752-285.003-130.949-294.086-131.769-288.429-119.164-281.844-123.933-280.609-124.829-279.685-124.458-279.206-123.629-277.645-120.902-277.592-117.594-279.384-114.939-280.43-113.394-281.67-112.069-280.615-110.212-279.063-107.475-277.312-105.325-277.805-102.438-286.335-104.196-287.272-95.762-277.805-97.096-275.93-97.364-276.306-94.555-276.926-93.287-277.01-92.982-277.088-92.678-277.172-92.373-277.442-92.335-277.705-92.293-277.95-92.243-280.077-91.809-280.904-90.144-281.703-88.704-285.091-87.414-286.274-84.859-284.043-82.216-286.021-79.009-285.788-76.498-283.352-74.685-283.898-73.404-283.951-72.124-283.046-70.845-283.114-70.598-283.18-70.356-283.246-70.11-289.105-67.031-289.143-58.856-284.123-57.148-282.936-25.523-286.655 33.843-255.196 47.418-256.348 41.206-256.853 35.234-257.398 29.872-260.369 .75-262.313-27.56-261.808-54.99-256.301-56.765-252.779-62.176-257.973-68.43L-258.107-68.766C-250.14-73.104-243.36-78.221-236.915-83.557-235.714-74.441-232.625-66.521-227.101-60.133-220.349-52.327-213.008-45.357-205.09-38.573-202.067-35.985-203.823-33.48-206.803-33.469-208.425-33.458-209.518-34.446-210.706-35.216-211.923-34.658-212.942-33.925-213.752-33.018-214.901-34.117-216.253-34.868-217.808-35.273-218.942-34.664-219.931-33.624-221.066-32.662-223.241-34.806-225.961-36.203-228.936-36.598-228.705-34.735-228.877-32.87-229.452-31.009-233.011-32.471-237.382-32.673-242.154-31.341-237.728-27.353-233.428-23.275-233.053-16.471-234.857-14.562-236.164-12.555-236.356-10.302-232.258-9.398-227.901-9.975-223.746-10.615-216.578-11.723-212.497-11.097-202.423-13.562-204.634-11.402-207.394-9.242-210.403-7.076L-211.393-8.565C-214.538-7.541-217.669-5.995-220.808-3.924L-221.535-7.695C-226.104-4.391-231.282 .129-235.017 5.102-240.224 12.042-237.702 18.263-233.983 21.343-230.706 24.064-226.545 24.698-224.674 21.383-223.157 18.704-223.905 15.874-220.808 17.423-216.119 19.757-211.645 20.187-207.852 19.783-202.902 19.261-197.962 22.001-200.231 24.692-202.783 27.716-203.636 29.054-199.144 29.312-194.766 29.563-190.212 28.341-186.059 27.047-181.404 25.592-176.808 26.356-177.54 29.895-178.06 32.416-177.676 33.125-173.727 32.439-169.238 31.664-166.686 30.444-164.046 28.612-157.831 24.304-151.804 25.699-150.642 30.075-149.48 34.447-148.42 34.754-145.157 32.65-141.896 30.56-138.945 27.031-137.588 24.449-136.698 22.744-134.652 22.615-131.967 23.766-128.995 25.031-126.28 26.501-123.704 28.103-122.554 24.563-122.73 20.575-127.191 15.985-128.693 14.444-129.386 13.28-127.571 11.729-123.586 8.345-122.373 4.172-122.782 .131-124.638-.294-126.7-.37-128.957-.097-127.142-6.81-128.346-13.264-128.042-19.846L-131.322-18.704C-130.374-23.641-128.219-27.27-126.668-31.556-128.44-31.704-130.211-31.242-131.981-30.69-130.92-39.42-124.59-43.33-111.875-43.314-84.55-43.271-73.1-38.84-52.924-36.651-46.11-35.912-35.575-40.15-29.599-36.868-23.012-33.248-21.903-27.549-24.961-22.12-28.666-15.537-37.633-13.396-48.519-13.709-62.772-14.122-75.218-21.064-91.349-16.049-97-14.297-110.669-7.455-115.811-16.703-120.442-13.999-123.704-6.551-119.707 1.512-124.029 7.372-125.873 14.807-121.595 22.03-116.653 30.374-108.729 34.697-100.582 37.292-91.242 40.278-81.382 39.035-71.633 36.432-58.061 32.794-49.03 26.954-40.583 20.859-33.43 15.695-25.977 10.409-18.471 5.636-16.061 4.107-12.912 3.589-11.038 5.983-9.297 8.198-7.466 9.346-4.339 7.803-.649 5.987 .769 3.083 0 0M77.656 201.806C-10.894 180.757-68.617 131.415-109.05 66.208-130.174 40.493-157.164 39.502-177.238 63.227-219.273 132.605-279.285 181.888-365.569 201.806-332.377 177.751-317.223 176.426-320.109 106.445V-137.937C-328.786-181.646-311.485-201.515-268.2-197.541H2.974C28.951-194.561 39.775-177.672 35.445-146.878 35.445-47.041 36.888 52.797 36.888 152.633 35.797 168.034 51.796 184.645 77.656 201.806" fill="#ffc20d" fill-rule="evenodd"/>
<path transform="matrix(1,0,0,-1,232.3548,572.1979)" d="M0 0C7.041 .339 14.676-1.235 22.025-1.738 28.772-2.198 34.65-3.499 37.374-8.433 34.256-8.993 30.103-8.199 26.086-6.513 23.163-5.285 20.913-3.121 16.504-4.006 8.881-5.537 2.089-5.885 0 0" fill="#ffc20d" fill-rule="evenodd"/>
<path transform="matrix(1,0,0,-1,199.6713,633.1861)" d="M0 0C.929 .148 1.714-.242 1.743-.866 1.774-1.491 1.04-2.121 .109-2.268-.821-2.417-1.605-2.027-1.636-1.404-1.666-.777-.933-.148 0 0M-.732-4.099C.201-3.95 .984-4.339 1.014-4.964 1.044-5.589 .31-6.219-.62-6.367-1.549-6.516-2.335-6.126-2.364-5.502-2.395-4.876-1.661-4.246-.732-4.099M-1.326-9.368C-.393-9.221 .389-9.61 .419-10.235 .45-10.86-.284-11.489-1.215-11.639-2.144-11.786-2.93-11.396-2.96-10.771-2.991-10.146-2.257-9.516-1.326-9.368M-1.885-13.762C-1.23-13.616-.673-14.003-.645-14.628-.613-15.252-1.12-15.883-1.775-16.031-2.428-16.179-2.985-15.79-3.015-15.165-3.046-14.54-2.54-13.909-1.885-13.762M-11.801-15.592C-10.071-15.675-8.625-16.012-6.892-16.097-6.282-16.545-5.385-16.74-4.774-17.19-9.286-18.426-11.147-17.499-11.801-15.592M-12.266-10.454H-7.391C-5.795-10.454-4.486-11.287-4.486-12.307-4.486-13.325-5.795-14.159-7.391-14.159H-12.266C-13.863-14.159-15.174-13.325-15.174-12.307-15.174-11.287-13.863-10.454-12.266-10.454M-13.727-8.854C-16.472-8.825-16.855-3.048-12.378-4.054L-5.257-5.655C-3.17-6.122-3.621-8.96-5.639-8.939ZM-12.513-2.774C-15.162-1.811-14.874 .11-11.929 .032-9.43-.042-6.918-.403-4.533-1.051-2.851-1.508-2.956-2.973-4.937-3.231-7.441-3.558-10.176-3.621-12.513-2.774" fill="#ffc20d" fill-rule="evenodd"/>
<path transform="matrix(1,0,0,-1,271.0581,558.46389)" d="M0 0C-.702 0-1.404 .195-2.076 .581-3.359 1.322-4.062 2.591-3.869 3.813-3.74 4.623-3.111 6.071-.34 6.662 2.604 7.284 4.499 6.414 7.937 4.828 10.823 3.502 17.226 3.139 19.616 4.137 20.125 4.35 20.208 4.525 20.209 4.526 20.209 4.53 20.187 5.201 18.084 6.618L18.891 8.521C21.081 8.059 23.296 7.438 25.439 6.839 31.504 5.142 37.232 3.539 42.912 4.995 43.098 5.044 43.242 5.091 43.352 5.134 43.052 5.389 42.408 5.821 41.055 6.416 39.023 7.302 38.906 8.464 39.017 9.077 39.245 10.343 40.757 11.143 43.166 11.274 49.444 11.606 56.817 13.607 60.698 16.03L61.813 14.245C57.598 11.612 49.977 9.526 43.279 9.171 42.137 9.109 41.507 8.888 41.224 8.729 41.351 8.628 41.564 8.491 41.899 8.345 44.609 7.155 45.773 6.088 45.677 4.881 45.604 3.97 44.85 3.322 43.438 2.956 37.209 1.357 30.938 3.113 24.872 4.811 23.946 5.069 23.006 5.333 22.064 5.584 22.418 4.848 22.412 4.148 22.042 3.489 20.383 .535 10.768 1.209 7.126 2.883 3.831 4.403 2.359 5.082 .098 4.602-1.208 4.324-1.735 3.825-1.789 3.483-1.843 3.14-1.529 2.697-1.025 2.406-.479 2.093 .042 2.025 .566 2.201 1.394 2.479 2.198 3.374 2.716 4.595L4.655 3.772C3.893 1.979 2.647 .679 1.237 .205 .829 .068 .415 0 0 0M64.421-1.78C62.141-.268 59.645 1.274 57.004 2.802L58.059 4.624C60.737 3.075 63.269 1.511 65.585-.026ZM61.994-32.158C57.424-29.999 54.212-26.336 50.262-21.698 50.196-21.887 50.132-22.075 50.077-22.237 49.524-23.87 48.951-25.56 47.725-26.044 47.209-26.248 46.661-26.208 46.143-25.932 45.021-25.327 44.149-24.128 43.14-22.74 42.404-21.727 41.586-20.602 40.599-19.643 40.518-20.051 40.443-20.541 40.385-20.924 40.111-22.728 39.827-24.593 38.751-25.376 38.333-25.682 37.837-25.799 37.32-25.714 34.088-25.193 31.611-23.039 28.989-20.759 28.301-20.16 27.595-19.546 26.864-18.953 26.577-19.237 26.226-19.438 25.819-19.547 23.625-20.135 20.387-17.881 15.701-14.374L15.165-13.973 16.424-12.285 16.963-12.688C19.725-14.755 23.897-17.869 25.275-17.513 25.333-17.497 25.404-17.478 25.485-17.289 26.025-16.036 25.544-13.456 25.158-11.383 24.65-8.66 24.25-6.51 25.96-6.107 27.003-5.858 27.968-6.768 29.296-8.018 30.072-8.747 31.138-9.749 32.01-10.204 31.94-9.909 31.858-9.6 31.795-9.361 31.36-7.714 31.045-6.523 32.027-5.948 32.985-5.388 33.944-6.313 34.458-6.812 34.9-7.24 35.324-7.808 35.735-8.355 36.154-8.915 36.924-9.944 37.293-10.063 37.3-10.052 37.327-10.031 37.361-9.995 37.554-9.799 37.529-8.793 37.517-8.31 37.491-7.274 37.465-6.203 38.314-5.671 38.838-5.345 39.482-5.374 40.23-5.76 42.428-6.906 44.286-8.503 45.78-9.786 46.778-10.645 48.146-11.819 48.599-11.819H48.601C50.734-10.178 50.644-8.085 50.529-5.436L50.517-5.163C50.486-4.699 50.474-4.229 50.48-3.749L52.585-3.76C52.586-4.192 52.602-4.626 52.621-5.059 52.998-10.592 56.334-14.712 63.025-17.953L62.107-19.848C57.126-17.436 53.775-14.454 51.996-10.829 51.563-11.793 50.872-12.711 49.779-13.533 48.25-14.685 46.554-13.229 44.407-11.383 43.081-10.243 41.449-8.842 39.614-7.819 39.615-7.972 39.619-8.127 39.622-8.258 39.648-9.316 39.681-10.634 38.867-11.468 38.246-12.102 37.602-12.194 37.177-12.172 35.898-12.087 34.958-10.831 34.049-9.618 34.042-9.608 34.035-9.599 34.028-9.589 34.302-10.718 34.381-11.447 33.994-12.002 33.78-12.308 33.445-12.503 33.073-12.538 31.201-12.72 29.431-11.035 27.854-9.551 27.542-9.258 27.167-8.906 26.843-8.628 26.912-9.303 27.087-10.24 27.228-10.997 27.601-12.996 28.013-15.211 27.741-16.959 28.664-17.685 29.53-18.438 30.371-19.17 32.834-21.312 34.965-23.165 37.563-23.619 37.911-23.187 38.174-21.459 38.303-20.607 38.577-18.808 38.775-17.507 39.785-17.123 40.075-17.011 40.655-16.908 41.292-17.437 42.783-18.668 43.878-20.174 44.844-21.502 45.622-22.572 46.359-23.587 47.026-24.01 47.39-23.604 47.851-22.245 48.083-21.562 48.581-20.091 48.91-19.119 49.83-18.942 50.297-18.854 50.75-19.024 51.083-19.414L51.441-19.836C55.425-24.516 58.572-28.212 62.894-30.254ZM43.946-42.503ZM40.02-63.693C39.716-63.693 39.244-63.581 38.879-62.986 38.619-62.561 38.363-62.129 38.104-61.692 36.064-58.256 33.957-54.702 28.426-51.681L29.436-49.833C35.187-52.975 37.601-56.733 39.617-60.116 39.676-59.643 39.732-59.147 39.782-58.709 40.23-54.755 40.518-53.091 41.575-52.555 41.995-52.343 42.479-52.357 42.904-52.601 46.358-54.58 49.369-55.809 51.383-56.454 49.695-54.805 48.682-53.47 47.5-50.95L48.892-49.546C51.005-50.515 54.531-51.734 56.852-52.367 56.657-52.097 56.475-51.822 56.296-51.552 56.065-51.203 55.835-50.854 55.577-50.524L56.697-48.862C61.347-50.204 67.01-50.03 69.995-49.573 67.327-48.361 64.983-46.718 63.083-44.73 58.122-46.153 53.075-44.271 47.683-38.983 47.615-39.204 47.547-39.442 47.488-39.649 47.115-40.958 46.651-42.587 45.641-43.773 45.176-44.318 44.665-44.571 44.114-44.529 43.232-44.458 42.764-43.686 42.311-42.939 41.964-42.368 41.572-41.72 41.012-41.283 40.684-41.028 40.471-40.939 40.363-40.909 40.235-41.256 40.214-42.412 41.117-44.146 41.592-45.057 42.853-47.475 41.362-48.627 39.088-50.385 32.494-45.686 29.416-43.29 29.333-44.975 29.193-46.521 28.136-47.213 27.763-47.456 27.132-47.677 26.248-47.34 20.947-45.329 17.306-42.759 13.175-39.11 12.42-40.907 11.047-43.626 9.458-44.166 8.891-44.36 8.312-44.289 7.827-43.972 6.704-43.235 5.996-42.702 5.449-41.833 4.707-43.033 3.559-44.189 1.797-44.269-.269-44.368-1.805-41.36-2.037-39.724L.048-39.429C.218-40.627 1.282-42.141 1.705-42.165 2.845-42.113 3.688-41.118 4.522-38.835L6.524-38.909C7.078-40.863 7.421-41.183 8.865-42.134 9.448-41.798 10.775-39.756 11.747-36.962L12.27-35.457 13.449-36.528C17.885-40.558 21.524-43.296 26.997-45.372 27.002-45.374 27.007-45.376 27.012-45.378 27.233-44.922 27.295-43.574 27.33-42.822 27.359-42.188 27.387-41.588 27.462-41.055L27.741-39.094 29.211-40.422C32.539-43.429 38.375-46.943 39.953-46.943 39.923-46.693 39.787-46.149 39.25-45.119 37.932-42.589 37.847-40.222 39.04-39.229 39.215-39.082 39.529-38.878 39.974-38.811 39.072-37.601 37.535-36.318 34.65-35.063 34.521-35.587 34.408-36.393 34.332-36.937 34.073-38.774 33.902-39.988 32.871-40.25 32.615-40.313 31.958-40.381 31.389-39.61 27.797-34.725 24.121-30.448 22.505-29.214 22.56-29.812 22.836-30.58 23.09-31.283 23.659-32.866 24.519-35.257 22.198-36.184 16.701-38.393 12.271-31.345 9.035-26.202L10.817-25.081C13.817-29.847 17.556-35.782 21.415-34.229 21.736-34.101 21.737-33.744 21.108-31.996 20.593-30.565 20.01-28.943 20.723-27.553 20.957-27.099 21.379-26.817 21.881-26.777 23.802-26.627 28.376-32.065 32.176-37.138 32.201-36.964 32.225-36.795 32.247-36.644 32.525-34.659 32.74-33.418 33.591-32.925 33.965-32.711 34.397-32.68 34.806-32.844 40.481-35.151 42.126-37.808 42.926-39.863L42.691-39.955C43.339-40.573 43.777-41.296 44.112-41.848 44.16-41.927 44.214-42.017 44.268-42.104 44.84-41.26 45.182-40.059 45.463-39.072 45.86-37.679 46.147-36.673 47.106-36.43 47.477-36.337 48.04-36.35 48.629-36.951 53.726-42.148 58.164-43.986 62.56-42.689L64.137-39.483 66.026-40.413 64.614-43.285C66.752-45.52 69.521-47.273 72.662-48.378 74.058-48.868 73.759-49.941 73.721-50.063 73.119-51.946 65.114-52.565 58.835-51.496 59.044-51.755 59.269-51.99 59.522-52.191 60.436-52.919 60.695-53.62 60.292-54.277 59.79-55.088 58.842-55.225 54.553-53.885 53.338-53.504 52.019-53.049 50.819-52.601 51.746-53.95 52.851-54.988 54.8-56.756 55.76-57.628 55.262-58.424 55.153-58.574 53.777-60.462 45.636-56.494 42.507-54.79 42.235-55.769 42.008-57.77 41.875-58.946 41.505-62.204 41.367-63.423 40.269-63.667 40.216-63.679 40.129-63.693 40.02-63.693M-75.857-68.987C-80.102-68.987-84.646-67.811-86.129-64.996L-86.319-64.635-86.216-64.239C-86.114-63.85-86.129-62.693-88.466-60.387L-86.986-58.889C-84.88-60.967-83.928-62.742-84.092-64.296-82.4-66.665-75.92-67.47-71.663-66.416-69.802-65.955-68.601-65.215-68.337-64.39-68.913-63.664-69.219-62.75-69.228-61.713-69.246-59.672-68.141-57.656-67.107-56.647L-65.637-58.155C-66.376-58.876-67.133-60.397-67.123-61.694-67.117-62.364-66.91-62.897-66.507-63.277L-66.176-63.588V-64.042C-66.174-66.096-67.943-67.664-71.157-68.46-72.536-68.802-74.173-68.987-75.857-68.987M-75.69-74.635C-79.312-74.635-83.103-74.088-86.747-72.976L-86.131-70.962C-77.992-73.447-69.134-72.966-63.563-69.735L-62.506-71.558C-66.016-73.593-70.691-74.635-75.69-74.635M-23.088-118.495C-35.145-111.363-42.422-98.817-41.627-86.532L-39.525-86.669C-40.27-98.17-33.397-109.951-22.016-116.683ZM30.966-120.478 29.583-118.89C38.872-110.794 42.376-99.916 43.68-92.216L45.756-92.567C44.395-100.605 40.724-111.973 30.966-120.478M139.068-121.92C134.631-119.918 130.973-116.878 127.436-113.939 126.7-113.327 125.964-112.716 125.225-112.117L124.646-111.645C120.798-108.467 107.236-98.474 93.957-103.087L93.265-101.099C107.576-96.118 121.925-106.665 125.982-110.017L126.553-110.482C127.297-111.086 128.039-111.702 128.782-112.319 132.211-115.169 135.757-118.115 139.933-120ZM-5.052-122.04C-5.122-118.634-5.791-115.396-6.499-111.969-7.416-107.529-8.364-102.938-8.075-97.591L-5.972-97.704C-6.247-102.779-5.326-107.234-4.437-111.543-3.708-115.068-3.021-118.397-2.947-121.997Z" fill="#ffc20d"/>
<path transform="matrix(1,0,0,-1,579.3009,730.5355)" d="M0 0V0-3.781-7.562H-53.963V-.717 6.167L-11.111 14.504V14.513L-53.963 22.744V29.598 36.473H0V32.692 28.911H-49.898V28.92L0 18.828V14.455 10.083L-49.558 0ZM.391 60.517C.862 58.907 1.097 57.075 1.097 55.019 1.097 52.255 .208 50.269-1.57 49.039-3.346 47.805-6.247 47.195-10.262 47.195H-30.983V42.134H-37.649V47.195H-43.297L-48.356 54.758H-37.649V60.517H-30.983V54.758H-12.078C-9.675 54.758-8.014 55.029-7.06 55.581-6.119 56.125-5.649 57.104-5.649 58.5-5.674 59.149-5.804 59.818-6.04 60.517ZM-23.531 99.005H-16.392V85.217998H-23.531ZM0 124.539V124.539H-53.963V128.671 132.8H-8.315V149.495H-4.158 0ZM0 152.558-53.963 167.44V172.695 177.969L0 192.851V188.412 183.971L-11.529 181.101V164.163L0 161.342V156.97ZM-45.389 172.618-19.845 166.247V179.017L-45.389 172.578ZM-53.963 195.536V195.536 200.034 204.524L-12.078 215.431-53.963 226.367V230.448 234.53L0 219.396V215.024 210.652ZM0 240.103H-53.963V244.235 248.364H0V244.235ZM0 263.623V263.623 259.843 256.062H-53.963V261.83 267.599L-13.257 282.062H-53.963V285.844 289.624H0V283.944 278.253L-41.205 263.623ZM0 298.011H-53.963V302.141 306.272H0V302.141ZM0 311.293-53.963 326.175V331.428 336.705L0 351.586V347.145 342.704L-11.529 339.835V322.898L0 320.075V315.703ZM-45.389 331.351-19.845 324.983V337.751L-45.389 331.313Z" fill="#ffc20d" fill-rule="evenodd"/>
<path transform="matrix(1,0,0,-1,268.0951,409.4878)" d="M0 0-1.061 1.009-2.174 2.065C-4.662 4.43-6.517 5.88-7.74 6.415-8.964 6.95-10.179 6.682-11.391 5.608-12.875 4.292-13.347 2.814-12.809 1.174-12.505 .385-12.047-.441-11.434-1.307-10.821-2.171-10.045-3.05-9.107-3.941-7.228-5.727-5.355-6.865-3.491-7.361-1.624-7.856 .017-7.476 1.426-6.227 2.547-5.234 2.959-4.293 2.653-3.414 2.349-2.532 1.466-1.394 0 0" fill="#ffc20d"/>
<path transform="matrix(1,0,0,-1,301.4209,440.9175)" d="M0 0C-.652 .856-1.296 1.358-1.933 1.508-1.895 1.347-1.943 1.155-2.079 .934-2.216 .715-2.401 .531-2.634 .38-2.829 .256-3.03 .179-3.241 .15L.697-5.012C1.238-4.506 1.433-3.756 1.283-2.763 1.069-1.758 .64-.838 0 0" fill="#ffc20d"/>
<path transform="matrix(1,0,0,-1,307.0888,439.8069)" d="M0 0C-.352 .69-.835 1.437-1.448 2.238-2.292 3.345-3.214 4.154-4.213 4.668-5.212 5.181-5.973 5.27-6.499 4.933-7.003 4.608-7.134 3.886-6.89 2.769-6.396 2.502-5.869 2.113-5.31 1.609-4.751 1.106-4.241 .55-3.779-.055-3.507-.412-3.264-.748-3.053-1.065-2.84-1.38-2.617-1.76-2.378-2.205-2.14-2.65-1.969-3.225-1.867-3.93-1.175-4.229-.557-4.203-.014-3.854 .551-3.492 .771-2.794 .647-1.756 .568-1.275 .352-.69 0 0" fill="#ffc20d"/>
<path transform="matrix(1,0,0,-1,266.3731,402.8224)" d="M0 0C.143 .263 .191 .554 .142 .875 .045 1.515-.275 2.094-.819 2.611L-1.414 3.126C-1.261 2.537-1.434 2.021-1.945 1.567-2.303 1.249-2.659 1.146-3.008 1.26L-.759-.878C-.392-.551-.14-.26 0 0" fill="#ffc20d"/>
<path transform="matrix(1,0,0,-1,346.9416,447.9814)" d="M0 0C-.884-.49-1.586-1.098-2.117-1.82-2.369-2.164-2.507-2.447-2.526-2.67-2.078-2.291-1.564-2.282-.984-2.64-.463-2.964-.271-3.279-.413-3.585L2.552 .449C1.735 .64 .883 .49 0 0" fill="#ffc20d"/>
<path transform="matrix(1,0,0,-1,365.415,422.7922)" d="M0 0C-.304 .107-.63 .122-.976 .048-1.67-.098-2.267-.449-2.769-1L-3.214-1.638C-2.595-1.434-2.011-1.541-1.466-1.961-1.085-2.254-.937-2.567-1.024-2.898L1.059-.621C.657-.314 .305-.107 0 0" fill="#ffc20d"/>
<path transform="matrix(1,0,0,-1,370.4981,419.0134)" d="M0 0 3.246 3.554 2.96 3.9C2.395 4.334 1.857 4.438 1.339 4.211L.309 3.642-.125 3.166C-.661 2.582-.923 1.99-.916 1.388-.87 .897-.563 .434 0 0" fill="#ffc20d"/>
<path transform="matrix(1,0,0,-1,273.8282,410.9882)" d="M0 0C.549 .488 .732 .98 .543 1.48L.047 2.492-.423 2.938C-.999 3.487-1.614 3.79-2.268 3.846-2.803 3.855-3.337 3.624-3.864 3.156L-.354-.179Z" fill="#ffc20d"/>
<path transform="matrix(1,0,0,-1,365.0043,411.4576)" d="M0 0-.596-.65 .387-1.406C.732-1.437 1.046-1.295 1.331-.983 1.714-.565 1.674-.183 1.221 .167 .803 .489 .397 .433 0 0" fill="#ffc20d"/>
<path transform="matrix(1,0,0,-1,250.6136,387.6194)" d="M0 0C-.473 .949-1.144 1.78-2.005 2.493-2.888 3.221-3.682 3.615-4.392 3.672-4.316 3.523-4.316 3.326-4.396 3.083-4.473 2.84-4.608 2.623-4.799 2.43-4.957 2.268-5.136 2.15-5.332 2.079L-.152-2.203C.357-1.685 .406-.951 0 0" fill="#ffc20d"/>
<path transform="matrix(1,0,0,-1,101.5526,320.73139)" d="M0 0C-.926 .587-1.965 .945-3.118 1.076-3.919 1.167-4.545 1.117-5.004 .927-4.551 .547-4.357 .119-4.42-.357-4.474-.745-4.723-1.101-5.174-1.423L1.014-2.056C1.208-1.31 .871-.624 0 0" fill="#ffc20d"/>
<path transform="matrix(1,0,0,-1,379.0307,418.551)" d="M0 0C-1.194 .92-2.256 1.197-3.177 .827-4.1 .458-5.243-.467-6.598-1.951L-7.581-3.027-8.611-4.152C-10.912-6.671-12.291-8.514-12.741-9.687-13.194-10.859-12.776-11.942-11.485-12.935-9.905-14.151-8.254-14.43-6.533-13.765-5.708-13.406-4.86-12.901-3.987-12.253-3.116-11.602-2.245-10.803-1.375-9.852 .363-7.952 1.4-6.121 1.742-4.369 2.084-2.615 1.499-1.155 0 0" fill="#ffc20d"/>
<path transform="matrix(1,0,0,-1,72.4861,318.22358)" d="M0 0C.18-.294 .291-.597 .32-.901L.229-1.582C.169-2.03-.005-2.395-.298-2.662L2.743-.121C2.772 .09 2.743 .288 2.662 .473 2.579 .66 2.45 .859 2.263 1.073 1.817 1.475 1.181 1.721 .356 1.814-.115 1.867-.598 1.79-1.102 1.584-1.514 1.367-1.85 1.01-2.107 .512L-1.365 .56C-.636 .477-.182 .289 0 0" fill="#ffc20d"/>
<path transform="matrix(1,0,0,-1,130.1309,327.6275)" d="M0 0C-.341 .173-.76 .356-1.25 .544-1.748 .734-2.226 .885-2.684 .998-3.435 1.182-4.112 1.276-4.714 1.276-5.312 1.271-5.912 1.167-6.515 .948-7.119 .736-7.695 .399-8.257-.054-8.82-.507-9.185-1.02-9.351-1.589L-9.47-1.998C-9.746-2.945-9.751-3.822-9.49-4.63-9.228-5.438-8.568-5.973-7.504-6.235-7.722-5.978-7.861-5.696-7.918-5.388-7.94-5.044-7.902-4.704-7.806-4.368-7.682-3.949-7.52-3.605-7.319-3.339-7.231-3.201-7.125-3.072-7.002-2.943-6.878-2.817-6.691-2.66-6.44-2.474-6.074-2.226-5.618-2.068-5.07-1.999-4.521-1.932-3.938-1.974-3.32-2.125L-2.805-2.252-1.844-2.623C-1.386-2.736-1.011-3.177-.721-3.948-.431-4.717-.414-5.544-.672-6.426L-.782-6.804C-.997-7.541-1.402-8.112-2-8.516-2.596-8.922-3.306-9.227-4.126-9.43-4.543-9.508-4.974-9.539-5.423-9.518-5.865-9.5-6.4-9.414-7.019-9.26-7.796-9.069-8.507-8.81-9.147-8.483-9.789-8.156-10.268-7.783-10.589-7.369L-14.012-8.893-12.846-8.807C-12.396-8.762-11.916-8.8-11.412-8.922L-10.655-9.11C-10.472-9.154-10.278-9.287-10.071-9.506-9.986-9.551-9.881-9.605-9.752-9.675-9.626-9.741-9.277-9.894-8.707-10.13L-6.604-10.747C-5.985-10.899-5.526-11.002-5.221-11.055-4.918-11.106-4.369-11.162-3.582-11.22-2.393-11.355-1.161-11.005 .115-10.17 1.389-9.333 2.208-8.296 2.57-7.055L2.807-6.369C3.317-4.625 3.185-3.247 2.418-2.236 1.645-1.222 .844-.479 0 0" fill="#ffc20d"/>
<path transform="matrix(1,0,0,-1,74.9659,321.484)" d="M0 0-6.11-4.675C-6.07-4.723-6.01-4.762-5.919-4.795-5.832-4.824-5.698-4.853-5.514-4.872L-4.968-4.935-4.392-4.999-4.152-5.027-3.975-5.047-4.218-5.523-4.284-6.021C-4.352-6.528-4.262-6.972-4.014-7.35-3.764-7.725-3.3-7.951-2.616-8.029-1.628-8.14-.975-7.852-.656-7.163-.337-6.476-.082-5.419 .109-3.993L2.863-4.303C2.665-5.795 2.63-6.892 2.763-7.6 2.891-8.303 3.44-8.711 4.393-8.818 5.304-8.921 6.054-8.671 6.65-8.07 7.237-7.467 7.611-6.604 7.758-5.48L7.862-4.703C7.901-4.423 7.884-3.975 7.811-3.365 7.737-2.753 7.477-2.196 7.029-1.698 6.583-1.198 5.993-.83 5.26-.593L1.694-.191Z" fill="#ffc20d"/>
<path transform="matrix(1,0,0,-1,227.111,369.6228)" d="M0 0C-.832 1.005-1.919 1.953-3.263 2.849L-4.214 3.482-5.094 3.869C-4.939 3.253-5.012 2.75-5.32 2.363-5.585 2.029-5.908 1.88-6.287 1.918L.419-2.553C.97-1.858 .831-1.005 0 0" fill="#ffc20d"/>
<path transform="matrix(1,0,0,-1,125.4484,334.4204)" d="M0 0C.411-.101 .805-.041 1.177 .185 1.548 .408 1.791 .708 1.901 1.087 2.013 1.466 1.958 1.829 1.741 2.176 1.522 2.523 1.219 2.743 .828 2.839 .415 2.939 .034 2.893-.318 2.699-.669 2.503-.903 2.205-1.021 1.807-1.124 1.449-1.085 1.083-.897 .711-.71 .338-.412 .102 0 0" fill="#ffc20d"/>
<path transform="matrix(1,0,0,-1,164.6504,340.825)" d="M0 0C-.654 .255-1.302 .36-1.94 .313-2.583 .267-3.165 .061-3.693-.3-4.459-.9-5.01-1.559-5.343-2.28-5.734-3.123-5.758-4.024-5.416-4.984-5.073-5.945-4.281-6.668-3.036-7.152-2.426-7.391-1.764-7.506-1.053-7.5-.341-7.494 .335-7.302 .972-6.923 1.609-6.545 2.101-5.987 2.444-5.244 2.851-4.364 2.873-3.395 2.51-2.344 2.146-1.292 1.309-.51 0 0" fill="#ffc20d"/>
<path transform="matrix(1,0,0,-1,328.2194,430.9421)" d="M0 0C-67.654 77.35-149.697 123.402-248.792 132.381L-163.96 202.834C-159.76 175.74-147.602 150.984-129.744 130.65-132.81 127.918-135.877 125.187-138.944 122.455-148.115 111.814-130.808 96.984-118.55 105.619-116.192 108.083-113.834 110.546-111.476 113.01-86.509 92.534-54.613 79.109-19.482 76.148-19.489 72.819-19.496 69.49-19.503 66.161-17.587 52.619 6.217 53.653 8.046 67.831 7.817 70.532 7.588 73.233 7.359 75.935 45.027 78.529 79.117 93.148 105.137 115.63 108.325 112.941 111.513 110.254 114.701 107.566 127.27 99.468 142.997 116.824 132.511 127.979 129.511 130.131 126.511 132.284 123.511 134.436 140.386 154.967 151.606 179.656 155.026 206.516L243.312 133.194C134.066 121.891 56.83 72.944 0 0M240.114 92.09C239.776 91.15 239.088 90.2 238.044 89.236L236.18 88.402C235.419 88.103 234.501 87.867 233.426 87.693 232.681 87.572 231.884 87.515 231.038 87.522 230.196 87.53 229.387 87.664 228.611 87.935 227.845 88.165 227.195 88.541 226.661 89.073 226.125 89.6 225.759 90.382 225.561 91.404 225.528 91.576 225.504 91.709 225.482 91.817 225.462 91.922 225.462 92.144 225.482 92.48 225.501 92.814 225.602 93.134 225.782 93.451L224.442 93.467 222.679 93.811C221.814 94.053 220.862 94.532 219.819 95.259 218.776 95.992 218.056 96.81 217.665 97.719 217.478 98.196 217.328 98.603 217.217 98.928 217.106 99.253 217.016 99.597 216.947 99.961 216.574 101.895 216.838 103.573 217.733 104.99 218.627 106.411 219.851 107.344 221.402 107.795 220.969 107.79 220.603 107.914 220.302 108.162 220 108.414 219.811 108.741 219.733 109.148 219.617 109.749 219.825 110.301 220.353 110.807 219.07 111.218 218.163 111.586 217.632 111.908 217.1 112.23 216.752 112.822 216.588 113.678 216.312 115.115 216.891 116.359 218.327 117.408 219.762 118.459 221.835 119.203 224.544 119.641 227.113 120.057 229.267 120.063 231.006 119.659 232.746 119.255 233.781 118.196 234.111 116.482 234.258 115.709 234.176 115.077 233.86 114.584 233.591 114.1 233.07 113.551 232.297 112.939 232.835 112.518 233.36 111.89 233.87 111.055 234.378 110.219 234.724 109.332 234.905 108.387L229.861 107.572C227.362 107.167 225.453 106.572 224.136 105.783 222.82 104.99 222.109 104.058 222.003 102.974 221.987 102.551 221.976 102.134 221.971 101.725 221.968 101.31 221.986 100.988 222.031 100.751 222.238 99.674 222.74 98.728 223.535 97.902 224.332 97.079 225.194 96.578 226.12 96.389 226.937 96.279 227.683 96.223 228.356 96.221L230.126 96.409C230.547 96.476 230.968 96.545 231.389 96.612 231.772 96.74 232.205 96.872 232.689 96.995 233.17 97.117 233.759 97.338 234.456 97.668 235.151 97.996 235.778 98.39 236.343 98.839L236.456 98.256 236.624 97.383 236.761 96.665 236.822 96.342C236.255 95.914 235.343 95.491 234.094 95.065 232.846 94.637 231.378 94.289 229.684 94.015 229.455 93.713 229.381 93.343 229.467 92.898 229.595 92.218 230.037 91.609 230.792 91.073 231.544 90.536 232.47 90.356 233.568 90.534 235.109 90.783 236.223 91.284 236.911 92.035 237.596 92.788 237.853 93.615 237.679 94.514L240.343 94.945C240.528 93.981 240.453 93.029 240.114 92.09M209.814 94.603C209.502 92.881 208.955 91.607 208.178 90.779 207.406 90.02 206.49 89.517 205.432 89.276 204.535 89.07 203.672 89.097 202.846 89.356 202.016 89.616 201.374 90.025 200.917 90.58 200.459 91.138 200.04 92.125 199.655 93.54L200.198 93.697 200.897 93.824 201.596 93.95 202.01 94.046C202.13 93.601 202.232 93.276 202.311 93.07 202.392 92.864 202.566 92.557 202.838 92.148 203.108 91.737 203.588 91.614 204.278 91.772 205.175 91.977 205.658 92.86 205.72 94.423 205.728 95.21 205.677 96.021 205.572 96.862 205.466 97.701 205.28 98.607 205.015 99.58 204.574 101.204 203.945 102.687 203.129 104.027 202.315 105.364 201.701 106.032 201.287 106.027L200.387 105.956C199.905 105.844 199.562 105.581 199.356 105.166 199.153 104.749 199.173 104.086 199.419 103.177L198.53 102.94 198.056 102.798 197.177 102.664C196.745 104.247 196.819 105.532 197.394 106.516 197.97 107.499 198.96 108.154 200.364 108.474 202.434 108.948 204.3 108.315 205.957 106.575 207.616 104.833 208.76 102.802 209.39 100.478 209.988 98.282 210.129 96.324 209.814 94.603M192.867 89.66C192.373 88.516 191.633 87.559 190.649 86.784 189.664 86.01 188.85 85.436 188.209 85.061L186.459 84.197 184.89 83.557 184.18 83.344 182.072 82.854 179.794 82.312C179.368 82.184 179.037 82.108 178.81 82.086 178.578 82.064 178.158 82.041 177.543 82.017 176.597 82.011 175.552 82.11 174.409 82.313 173.261 82.521 172.143 83.096 171.05 84.035 169.955 84.979 169.134 86.222 168.587 87.77L168.454 88.142C168.133 89.054 168.01 90.012 168.086 91.03 168.163 92.049 168.784 93.058 169.948 94.069 169.309 94.25 168.856 94.457 168.583 94.703 168.308 94.948 168.082 95.32 167.904 95.822 167.602 96.682 167.778 97.571 168.435 98.497 169.094 99.42 170.008 100.06 171.181 100.411 172.895 100.922 174.349 100.971 175.541 100.56 176.736 100.144 177.627 99.425 178.218 98.388 178.114 99.319 178.224 100.096 178.549 100.725 178.879 101.35 179.24 101.84 179.637 102.194 180.497 102.941 181.578 103.512 182.886 103.902 184.06 104.251 185.155 104.383 186.168 104.301 187.182 104.221 187.992 103.942 188.599 103.458 189.207 102.976 189.598 102.486 189.777 101.979 189.953 101.479 189.995 100.958 189.897 100.431 189.794 99.902 189.523 99.453 189.081 99.087 190.876 98.662 192.155 97.373 192.917 95.22 193.1 94.703 193.262 93.932 193.4 92.909 193.536 91.886 193.36 90.803 192.867 89.66M168.365 74.495C168.288 73.509 167.868 72.433 167.11 71.265L165.522 70.044C164.863 69.585 164.036 69.151 163.038 68.742 162.346 68.459 161.587 68.228 160.767 68.047 159.946 67.867 159.126 67.818 158.302 67.91 157.498 67.961 156.769 68.182 156.108 68.581 155.45 68.972 154.888 69.649 154.429 70.599 154.352 70.758 154.291 70.881 154.243 70.982 154.193 71.08 154.137 71.296 154.067 71.624 153.997 71.954 154.011 72.286 154.102 72.633L152.798 72.352 150.997 72.293C150.094 72.335 149.034 72.594 147.816 73.073 146.595 73.556 145.616 74.289 144.88 75.273 144.437 75.862 144.083 76.431 143.814 76.988 142.943 78.782 142.755 80.469 143.25 82.042 143.744 83.619 144.687 84.796 146.071 85.578 145.652 85.478 145.266 85.523 144.916 85.712 144.608 85.92 144.37 86.193 144.206 86.532 144.023 86.909 143.972 87.418 144.05 88.058 144.13 88.698 144.618 89.416 145.518 90.213 146.417 91.008 147.527 91.676 148.847 92.217 150.125 92.739 151.269 93.061 152.271 93.186 153.275 93.31 154.26 93.194 155.223 92.838 156.188 92.481 156.946 92.016 157.497 91.444 158.047 90.871 158.555 90.109 159.018 89.152L154.338 87.24C152.021 86.293 150.326 85.292 149.255 84.233 148.186 83.172 147.742 82.108 147.925 81.034 148.022 80.62 148.121 80.213 148.224 79.816 148.329 79.411 148.434 79.104 148.54 78.884 149.024 77.885 149.76 77.077 150.751 76.452 151.739 75.831 152.707 75.536 153.656 75.56 154.478 75.633 155.216 75.744 155.87 75.893L157.54 76.468C157.928 76.626 158.319 76.787 158.709 76.946 159.047 77.156 159.433 77.379 159.87 77.606 160.304 77.83 160.817 78.177 161.407 78.65 161.995 79.123 162.5 79.645 162.93 80.207L163.192 79.665 163.552 78.842 163.876 78.176 164.021 77.877C163.583 77.335 162.814 76.724 161.72 76.037 160.627 75.347 159.3 74.685 157.741 74.047 157.595 73.703 157.623 73.328 157.822 72.915 158.129 72.284 158.716 71.791 159.589 71.438 160.461 71.085 161.407 71.114 162.427 71.531 163.856 72.116 164.806 72.849 165.273 73.73 165.74 74.612 165.772 75.472 165.366 76.306L167.836 77.315C168.27 76.421 168.448 75.48 168.365 74.495M141.169 65.156C141.095 64.427 140.96 63.771 140.764 63.188 140.563 62.605 140.245 61.947 139.804 61.209 139.406 60.57 138.753 59.848 137.832 59.033 136.918 58.222 135.717 57.422 134.232 56.637 133.862 56.441 133.504 56.251 133.15 56.062 132.765 55.933 132.344 55.774 131.889 55.584 131.435 55.393 130.758 55.198 129.866 55.001 128.971 54.803 127.834 54.74 126.443 54.808 125.056 54.878 123.764 55.205 122.571 55.791 121.38 56.379 120.343 57.111 119.474 57.996 118.604 58.88 117.948 59.669 117.509 60.367 116.916 61.308 116.476 62.239 116.188 63.153 115.901 64.069 115.75 65.109 115.743 66.274 115.737 67.438 116.019 68.46 116.587 69.341 117.095 70.189 117.79 70.958 118.669 71.65 117.828 71.506 117.138 71.863 116.601 72.716 115.346 74.711 116.641 76.723 120.482 78.758 120.813 78.932 121.233 79.142 121.751 79.386 122.269 79.628 122.869 79.883 123.546 80.155 124.163 80.482 124.788 80.718 125.42 80.865 126.054 81.013 126.728 81.105 127.438 81.153 128.644 81.235 129.652 80.921 130.454 80.207 130.647 80.034 130.919 79.775 131.272 79.43 131.624 79.089 131.862 78.844 131.977 78.702L132.804 77.52 125.04 73.405C123.172 72.415 121.91 71.175 121.259 69.686 120.607 68.197 120.422 66.861 120.701 65.677L121.238 64.303 122.016 62.867C122.502 62.095 123.032 61.415 123.607 60.826 124.181 60.239 124.989 59.71 126.022 59.242 127.056 58.771 128.266 58.621 129.654 58.792 131.04 58.96 132.573 59.49 134.26 60.383 135.533 61.058 136.49 61.96 137.133 63.094 137.777 64.227 138.022 65.305 137.87 66.33 137.803 66.873 137.728 67.298 137.643 67.605 137.56 67.912 137.425 68.269 137.24 68.672 137.052 69.077 136.687 69.712 136.142 70.579L138.76 71.966 139.471 70.836C139.756 70.383 139.97 70.044 140.111 69.819 140.183 69.704 140.271 69.5 140.376 69.204 140.481 68.906 140.61 68.46 140.768 67.865 141.113 66.792 141.242 65.888 141.169 65.156M93.383 38.241C93.051 37.247 92.469 36.428 91.634 35.786 90.925 35.239 90.137 34.917 89.269 34.816 88.401 34.716 87.628 34.825 86.952 35.141 86.275 35.458 85.425 36.175 84.405 37.293L84.817 37.654 85.386 38.048 85.953 38.443 86.281 38.695C86.601 38.345 86.846 38.092 87.016 37.939 87.188 37.789 87.492 37.581 87.931 37.321 88.37 37.063 88.86 37.144 89.405 37.564 90.112 38.108 90.124 39.098 89.433 40.527 89.064 41.238 88.632 41.947 88.135 42.658 87.64 43.371 87.041 44.111 86.34 44.878 85.165 46.162 83.893 47.242 82.519 48.117 81.146 48.991 80.276 49.344 79.906 49.172L79.132 48.748C78.752 48.454 78.57 48.078 78.583 47.622 78.599 47.165 78.935 46.577 79.591 45.86L78.904 45.289 78.546 44.97 77.818 44.496C76.676 45.747 76.129 46.93 76.176 48.047 76.222 49.164 76.801 50.148 77.908 51.002 79.543 52.261 81.522 52.441 83.844 51.545 86.165 50.648 88.164 49.281 89.841 47.447 91.426 45.713 92.489 44.009 93.029 42.336 93.566 40.663 93.686 39.299 93.383 38.241M79.038 27.395C78.612 26.382 78.211 25.618 77.828 25.098L76.586 23.496 75.396 22.169 74.868 21.701 73.207 20.412 71.419 19.009C71.095 18.722 70.835 18.52 70.64 18.408 70.445 18.297 70.078 18.107 69.537 17.838 68.689 17.451 67.701 17.12 66.577 16.842 65.447 16.567 64.166 16.635 62.735 17.038 61.3 17.446 59.969 18.233 58.738 19.403L58.442 19.685C57.717 20.375 57.149 21.188 56.73 22.133 56.314 23.078 56.39 24.237 56.952 25.613 56.292 25.519 55.784 25.524 55.422 25.634 55.06 25.744 54.68 25.988 54.279 26.367 53.595 27.017 53.331 27.887 53.477 28.985 53.629 30.08 54.145 31.022 55.033 31.809 56.329 32.958 57.61 33.588 58.88 33.699 60.151 33.805 61.295 33.518 62.322 32.824 61.746 33.56 61.447 34.165 61.422 34.643 61.396 35.125 61.491 35.853 61.712 36.836L62.281 39.398C62.445 40.056 62.488 40.633 62.413 41.128 62.336 41.624 62.185 42.043 61.956 42.385L61.365 43.23 64.895 46.36C65.302 45.753 65.556 45.198 65.655 44.698 65.755 44.194 65.767 43.69 65.691 43.183 65.615 42.677 65.426 42.125 65.13 41.529L64.346 39.973 64.834 40.497C65.379 40.98 66.041 41.353 66.818 41.619 67.598 41.879 68.357 41.886 69.103 41.631 69.844 41.382 70.408 41.072 70.788 40.712 71.236 40.285 71.561 39.831 71.75 39.349 71.943 38.87 71.945 38.356 71.752 37.821 73.535 38.162 75.26 37.542 76.923 35.962 77.302 35.602 77.574 35.311 77.737 35.094 77.901 34.875 78.153 34.494 78.496 33.951 79.099 33.094 79.436 32.03 79.513 30.765 79.587 29.622 79.432 28.5 79.038 27.395M57.12 6.176C56.733 5.045 56.38 4.159 56.058 3.534L55.06 1.937 54.092 .622 53.608 .093 52.103-1.349 50.484-2.916C50.196-3.231 49.961-3.457 49.78-3.586 49.599-3.718 49.253-3.941 48.746-4.261 47.948-4.725 47.003-5.149 45.912-5.532 44.816-5.908 43.533-5.966 42.06-5.697 40.582-5.425 39.164-4.767 37.797-3.714L37.47-3.462C36.671-2.848 36.009-2.089 35.482-1.185 34.957-.285 34.897 .878 35.3 2.299 34.659 2.14 34.154 2.096 33.78 2.169 33.413 2.242 33.01 2.444 32.573 2.78 31.829 3.355 31.471 4.191 31.497 5.293 31.526 6.393 31.937 7.376 32.731 8.244 33.918 9.544 35.139 10.308 36.387 10.541 37.64 10.771 38.818 10.601 39.934 10.026 39.329 10.663 38.958 11.204 38.811 11.659L38.57 12.825 38.608 13.733 38.661 14.245 36.221 16.125 35.514 15.35 32.433 17.721 34.583 20.071 35.455 19.4 35.174 20.212C35.108 20.578 35.232 20.935 35.553 21.286 35.994 21.769 36.335 22.09 36.574 22.249 36.774 22.435 37.13 22.486 37.643 22.404 38.155 22.322 38.75 22.02 39.421 21.503 40.112 20.971 40.512 20.52 40.622 20.152 40.733 19.782 40.696 19.376 40.511 18.938 40.327 18.498 40.112 18.145 39.866 17.878 39.456 17.428 39.026 17.178 38.577 17.125L39.911 16.098 40.665 16.922C41.016 17.305 41.239 17.695 41.337 18.088 41.438 18.479 41.454 18.858 41.389 19.221L41.169 19.987C41.135 20.155 40.997 20.417 40.743 20.784L40.044 21.577 40.32 21.877 40.593 22.176 41.326 22.977 42.03 23.799 42.237 24.023C43.245 23.247 43.821 22.463 43.958 21.674 44.097 20.885 43.987 20.133 43.635 19.409 44.044 19.549 44.359 19.625 44.586 19.635 44.812 19.646 45.213 19.558 45.776 19.38 46.34 19.2 46.862 18.927 47.336 18.561 47.807 18.199 48.184 17.781 48.456 17.316 48.727 16.85 48.785 16.366 48.638 15.855 50.405 16.367 52.24 15.893 54.139 14.432 54.593 14.081 55.172 13.505 55.887 12.702 56.599 11.898 57.076 10.897 57.321 9.685 57.569 8.479 57.503 7.308 57.12 6.176M36.408-19.559C36.164-20.419 35.802-21.291 35.323-22.176 34.995-22.735 34.766-23.127 34.634-23.346 34.501-23.565 34.267-23.901 33.936-24.352 33.102-25.49 31.53-26.985 29.224-28.837 26.916-30.692 23.921-30.478 20.238-28.198 19.472-27.724 18.782-26.962 18.16-25.908 17.546-24.857 17.418-23.971 17.777-23.248 17.472-23.663 17.066-23.905 16.559-23.97 16.051-24.037 15.508-23.891 14.919-23.527 14.31-23.15 13.919-22.639 13.74-21.99 13.558-21.339 13.573-20.686 13.775-20.022 13.976-19.36 14.475-18.487 15.269-17.404 15.933-16.501 16.582-15.774 17.218-15.221 17.84-14.61 18.525-14.193 19.273-13.974 20.02-13.754 20.903-13.702 21.917-13.818 22.932-13.937 23.824-14.231 24.591-14.706L25.209-15.089 24.57-15.961 23.967-16.781 23.609-17.268 23.308-17.678 23.009-18.085 22.766-18.415 21.923-19.561 21.123-20.647C20.565-21.409 20.301-22.14 20.332-22.835 20.366-23.53 20.756-24.108 21.504-24.57 22.879-25.423 24.339-25.578 25.883-25.037 27.424-24.495 28.897-23.267 30.303-21.354 31.802-19.314 32.306-17.218 31.821-15.067 31.335-12.915 30.057-11.199 27.999-9.924 26.902-9.245 25.788-8.817 24.662-8.645 23.538-8.423 22.598-8.426 21.843-8.654 21.094-8.887 20.236-9.45 19.273-10.352 18.31-11.252 17.081-12.722 15.583-14.762L14.747-15.898 13.951-16.98 13.296-17.875C13.043-18.219 12.775-18.504 12.492-18.734 12.206-18.965 11.984-19.15 11.827-19.289 11.417-19.614 10.947-19.795 10.408-19.828 9.84-19.819 9.349-19.683 8.915-19.415 8.528-19.176 8.183-18.846 7.889-18.427 7.601-18.011 7.409-17.486 7.322-16.854 7.229-16.22 7.482-15.207 8.079-13.817 8.673-12.426 9.435-11.099 10.362-9.836 10.839-9.186 11.346-8.556 11.883-7.942 12.42-7.329 13.014-6.713 13.671-6.094 14.875-4.923 15.833-4.203 16.545-3.935 17.256-3.666 18.195-3.499 19.36-3.434 19.931-3.393 20.453-3.414 20.922-3.495 21.392-3.576 21.825-3.739 22.218-3.981L21.321-5.2 20.775-5.767C19.553-5.719 18.423-5.893 17.391-6.289 16.354-6.685 15.112-7.867 13.667-9.834L12.853-10.944C11.938-12.189 11.33-13.074 11.031-13.598 10.732-14.121 10.503-14.644 10.36-15.171 10.212-15.696 10.282-16.048 10.572-16.228 10.768-16.348 10.973-16.391 11.197-16.358 11.416-16.324 11.628-16.212 11.825-16.019L15.062-11.615 16.318-9.906C16.772-9.289 17.603-8.488 18.809-7.51 20.014-6.53 21.153-5.954 22.229-5.773 23.281-5.552 24.282-5.49 25.243-5.586 26.157-5.626 27.108-5.852 28.083-6.275L30.377-7.418C31.419-8.064 32.404-8.831 33.338-9.723 34.268-10.616 35.022-11.614 35.6-12.72 36.175-13.823 36.514-15.025 36.618-16.324 36.724-17.623 36.652-18.7 36.408-19.559M-18.59-14.585C-19.289-15.035-19.949-15.232-20.568-15.18-21.161-15.161-21.924-14.959-22.854-14.574-23.043-15.201-23.441-15.902-24.049-16.679-24.658-17.456-25.391-18.118-26.246-18.668L-29.185-14.817C-30.64-12.91-32.034-11.574-33.37-10.811-34.708-10.05-35.931-9.853-37.046-10.223-37.47-10.39-37.884-10.556-38.292-10.726-38.703-10.897-39.013-11.049-39.229-11.186-40.204-11.814-40.926-12.632-41.407-13.643-41.881-14.653-42.014-15.581-41.805-16.431-41.571-17.157-41.311-17.802-41.026-18.362L-40.096-19.755C-39.85-20.077-39.604-20.399-39.359-20.719-39.071-20.984-38.757-21.289-38.433-21.638-38.11-21.989-37.643-22.383-37.024-22.824-36.405-23.264-35.75-23.619-35.066-23.9L-35.596-24.238-36.388-24.747-37.039-25.166-37.33-25.354C-37.995-25.062-38.797-24.482-39.745-23.623-40.696-22.766-41.659-21.691-42.645-20.399-43.041-20.336-43.438-20.431-43.839-20.69-44.458-21.086-44.872-21.709-45.083-22.564-45.294-23.416-45.081-24.263-44.441-25.1-43.544-26.278-42.578-26.992-41.547-27.246-40.513-27.5-39.588-27.363-38.773-26.839L-37.222-28.871C-38.097-29.434-39.068-29.774-40.138-29.888-41.207-30.004-42.439-29.832-43.832-29.372L-45.442-28.174C-46.06-27.669-46.68-27.006-47.308-26.185-47.742-25.615-48.135-24.976-48.484-24.271-48.835-23.566-49.042-22.836-49.102-22.077-49.2-21.342-49.102-20.643-48.804-19.973-48.51-19.305-47.893-18.67-46.964-18.074-46.81-17.973-46.689-17.896-46.591-17.833-46.495-17.771-46.277-17.678-45.937-17.553-45.599-17.428-45.24-17.376-44.851-17.391L-45.402-16.271-45.809-14.659C-45.934-13.838-45.863-12.841-45.587-11.667-45.304-10.489-44.799-9.546-44.067-8.836-43.676-8.477-43.338-8.182-43.063-7.951-42.79-7.724-42.487-7.502-42.157-7.291-40.403-6.164-38.636-5.672-36.859-5.819-35.077-5.964-33.639-6.587-32.539-7.687-32.726-7.328-32.759-6.971-32.639-6.615-32.52-6.259-32.276-5.964-31.907-5.726-31.365-5.376-30.731-5.314-30.008-5.541-30.144-4.301-30.163-3.389-30.07-2.811-29.977-2.232-29.539-1.694-28.763-1.194-27.461-.357-25.987-.314-24.346-1.067-22.702-1.816-21.091-3.225-19.513-5.293-18.016-7.254-17.1-9.044-16.763-10.661-16.426-12.28-17.035-13.588-18.59-14.585M-54.919-3.649C-55.989-3.311-56.86-2.748-57.532-1.96-58.1-1.291-58.425-.557-58.504 .243-58.583 1.043-58.436 1.749-58.069 2.358-57.701 2.969-56.889 3.721-55.637 4.618L-55.259 4.228-54.848 3.693-54.438 3.159-54.177 2.85C-54.569 2.568-54.851 2.352-55.024 2.2-55.195 2.048-55.431 1.777-55.727 1.384-56.026 .992-55.955 .539-55.517 .023-54.948-.645-53.873-.689-52.291-.108-51.505 .207-50.717 .58-49.925 1.009-49.132 1.44-48.307 1.964-47.446 2.58-46.006 3.612-44.786 4.742-43.786 5.971-42.786 7.199-42.372 7.986-42.546 8.331L-42.982 9.054C-43.287 9.414-43.69 9.595-44.187 9.597-44.685 9.599-45.337 9.312-46.14 8.736L-46.738 9.385-47.072 9.725-47.564 10.409C-46.162 11.413-44.855 11.874-43.64 11.792-42.427 11.709-41.374 11.146-40.484 10.099-39.17 8.554-39.042 6.735-40.099 4.636-41.158 2.538-42.715 .751-44.77-.722-46.713-2.116-48.607-3.031-50.447-3.468-52.288-3.904-53.777-3.964-54.919-3.649M-62.325 9.562C-63.661 9.467-64.922 9.659-66.113 10.131-67.305 10.604-68.221 11.024-68.871 11.388L-70.484 12.452-71.799 13.467-72.318 13.959-73.721 15.483-75.251 17.123C-75.564 17.421-75.783 17.659-75.905 17.839-76.026 18.018-76.234 18.355-76.526 18.852-76.948 19.63-77.308 20.536-77.612 21.568-77.911 22.605-77.837 23.781-77.398 25.093-76.954 26.411-76.096 27.632-74.82 28.762L-74.513 29.036C-73.763 29.7-72.876 30.221-71.847 30.604-70.816 30.988-69.554 30.918-68.054 30.402-68.156 31.008-68.152 31.473-68.033 31.806-67.913 32.139-67.647 32.488-67.234 32.855-66.525 33.482-65.576 33.725-64.38 33.592-63.187 33.452-62.161 32.979-61.304 32.164-60.052 30.974-59.367 29.797-59.245 28.632-59.129 27.465-59.443 26.416-60.198 25.474-59.335 25.966-58.523 26.215-57.766 26.222-57.01 26.225-56.371 26.141-55.849 25.969-54.741 25.589-53.709 24.946-52.754 24.037-51.898 23.224-51.289 22.377-50.924 21.506-50.559 20.634-50.476 19.844-50.685 19.131-50.891 18.419-51.198 17.881-51.616 17.511-52.029 17.146-52.521 16.885-53.081 16.734-53.642 16.586-54.199 16.615-54.753 16.818-54.382 15.151-55.084 13.53-56.858 11.957-57.284 11.579-57.968 11.11-58.911 10.546-59.851 9.985-60.991 9.656-62.325 9.562M-92.786 36.536C-92.377 35.876-91.968 35.303-91.554 34.816L-90.303 33.649C-89.986 33.387-89.667 33.125-89.351 32.862-89.005 32.664-88.624 32.432-88.224 32.159-87.821 31.884-87.269 31.595-86.558 31.293-85.849 30.994-85.122 30.781-84.389 30.651L-84.822 30.21-85.494 29.574-86.026 29.03-86.263 28.788C-86.982 28.934-87.902 29.331-89.031 29.968-90.164 30.604-91.362 31.448-92.63 32.497-93.032 32.477-93.395 32.302-93.724 31.966-94.228 31.453-94.478 30.759-94.474 29.884-94.472 29.01-94.058 28.229-93.228 27.544-92.066 26.583-90.949 26.086-89.882 26.051-88.814 26.018-87.946 26.342-87.279 27.02L-85.27 25.361C-85.985 24.633-86.848 24.102-87.863 23.768-88.875 23.433-90.117 23.347-91.587 23.507L-93.45 24.343C-94.176 24.708-94.944 25.226-95.754 25.898-96.318 26.362-96.858 26.903-97.371 27.518-97.883 28.133-98.268 28.8-98.511 29.528-98.786 30.224-98.863 30.925-98.737 31.64-98.613 32.351-98.169 33.098-97.41 33.871-97.282 34-97.185 34.1-97.105 34.181-97.024 34.262-96.836 34.398-96.536 34.591-96.236 34.782-95.9 34.907-95.518 34.97L-96.327 35.95-97.12 37.438C-97.444 38.21-97.618 39.204-97.637 40.423-97.653 41.642-97.321 42.759-96.641 43.779-96.235 44.389-95.812 44.917-95.368 45.37-93.935 46.83-92.333 47.674-90.566 47.897-88.794 48.125-87.243 47.814-85.899 46.971-86.17 47.281-86.282 47.622-86.235 47.994-86.154 48.336-85.978 48.646-85.708 48.922-85.408 49.227-84.921 49.48-84.253 49.672-83.584 49.867-82.669 49.749-81.512 49.319-80.354 48.889-79.236 48.231-78.162 47.343-77.123 46.483-76.337 45.656-75.805 44.865-75.273 44.074-74.989 43.201-74.95 42.249-74.914 41.295-75.067 40.471-75.413 39.776-75.76 39.08-76.314 38.345-77.076 37.568L-80.882 40.714C-82.767 42.272-84.454 43.286-85.943 43.754-87.434 44.218-88.673 44.157-89.668 43.568-90.042 43.318-90.405 43.07-90.759 42.822-91.119 42.569-91.383 42.357-91.559 42.178-92.357 41.364-92.86 40.42-93.08 39.334-93.296 38.253-93.195 37.321-92.786 36.536M-119.391 50.11C-118.66 49.016-117.507 47.946-115.934 46.897-114.745 46.104-113.457 45.667-112.067 45.589-110.678 45.511-109.502 45.742-108.545 46.288-108.031 46.565-107.639 46.801-107.368 46.996-107.096 47.191-106.796 47.449-106.47 47.77-106.144 48.09-105.658 48.655-105.018 49.465L-102.572 47.833-103.408 46.777C-103.744 46.354-103.994 46.038-104.162 45.826-104.245 45.72-104.413 45.563-104.664 45.355-104.918 45.148-105.309 44.856-105.839 44.482-106.765 43.757-107.613 43.279-108.37 43.045-109.13 42.809-109.837 42.656-110.495 42.582-111.158 42.515-111.943 42.513-112.855 42.582-113.654 42.657-114.639 42.912-115.822 43.351-117.003 43.787-118.287 44.47-119.674 45.394-120.019 45.625-120.354 45.849-120.684 46.068-120.969 46.339-121.3 46.627-121.674 46.93-122.05 47.235-122.52 47.723-123.078 48.39-123.639 49.059-124.165 49.988-124.66 51.183-125.155 52.373-125.356 53.591-125.258 54.829-125.156 56.066-124.85 57.234-124.324 58.322-123.798 59.412-123.279 60.282-122.763 60.933-122.066 61.813-121.319 62.562-120.526 63.175-119.732 63.789-118.757 64.337-117.601 64.816-116.444 65.297-115.311 65.476-114.204 65.357-113.155 65.276-112.106 65.008-111.06 64.55-111.543 65.199-111.471 65.922-110.84 66.717-109.366 68.582-106.836 68.313-103.249 65.922-102.94 65.717-102.56 65.449-102.107 65.113-101.655 64.777-101.158 64.378-100.609 63.919-100.035 63.537-99.545 63.109-99.141 62.638-98.738 62.166-98.37 61.639-98.034 61.066-97.461 60.085-97.365 59.113-97.749 58.149-97.844 57.918-97.989 57.586-98.19 57.148-98.386 56.713-98.534 56.414-98.628 56.261L-99.468 55.086-106.72 59.923C-108.467 61.087-110.213 61.641-111.961 61.579-113.708 61.521-115.113 61.133-116.179 60.417L-117.33 59.41-118.439 58.174C-119.012 57.451-119.473 56.729-119.825 56.008-120.175 55.287-120.374 54.396-120.42 53.337-120.465 52.279-120.126 51.204-119.391 50.11M-158.883 83.289C-159.587 81.766-160.818 80.58-162.577 79.729-164.336 78.876-166.232 78.845-168.262 79.636-169.505 80.12-170.536 80.902-171.352 81.977-172.019 82.875-172.409 83.883-172.523 85.003-172.636 86.124-172.443 87.225-171.942 88.307-171.237 89.829-170.254 90.883-168.992 91.467-167.73 92.051-166.582 92.366-165.543 92.41-164.503 92.454-163.494 92.285-162.511 91.903-161.267 91.419-160.261 90.683-159.492 89.699-158.724 88.714-158.309 87.659-158.249 86.538-158.189 85.414-158.4 84.331-158.883 83.289M-179.621 91.927C-179.961 90.765-180.43 89.657-181.032 88.606-181.634 87.554-182.214 86.745-182.773 86.179-183.319 85.565-183.87 85.112-184.422 84.82-184.901 84.528-185.437 84.32-186.039 84.198-186.508 84.105-187.044 84.08-187.645 84.114L-189.016 84.35C-189.702 84.519-190.376 84.757-191.032 85.072-191.691 85.387-192.168 85.95-192.471 86.766-192.726 87.573-192.666 88.623-192.286 89.921L-191.289 89.677-190.122 89.389-189.709 89.287C-189.856 88.782-189.932 88.435-189.94 88.245-189.946 88.055-189.869 87.857-189.709 87.647-189.554 87.441-189.353 87.25-189.108 87.078L-188.223 86.725C-187.863 86.637-187.339 86.62-186.665 86.679-185.945 86.706-185.143 87.453-184.251 88.919-183.361 90.379-182.626 92.103-182.047 94.085-181.885 95.064-181.877 95.907-182.036 96.622-182.149 97.4-182.632 97.888-183.468 98.095-184.012 98.228-184.486 98.03-184.884 97.492-185.247 96.922-185.57 96.151-185.854 95.18L-186.131 94.227-186.383 93.37-189.234 94.071-189.06 94.671-188.828 95.46C-188.424 96.848-188.305 97.843-188.465 98.447-188.581 99.06-188.919 99.435-189.486 99.576-190.144 99.738-190.707 99.392-191.173 98.532-191.369 98.107-191.557 97.679-191.731 97.25-191.906 96.818-192.06 96.373-192.196 95.905-192.867 93.608-194.053 91.588-195.755 89.856-197.46 88.118-199.264 87.377-201.17 87.643-203.076 87.908-204.26 88.099-204.719 88.212-205.641 88.438-206.565 88.766-207.497 89.205-208.432 89.638-209.194 90.146-209.791 90.727L-211.177 91.925-211.936 92.353C-212.165 92.41-212.46 92.347-212.81 92.163-213.158 91.979-213.415 91.727-213.582 91.405L-213.822 90.586-215.711 91.051-215.442 92.099-215.23 92.96C-215.008 93.718-214.7 94.396-214.297 94.995-213.893 95.595-213.273 96.074-212.447 96.435L-210.173 97.53C-210.518 97.953-210.781 98.605-210.966 99.486-211.101 100.373-211.034 101.269-210.77 102.174-210.672 102.509-210.502 102.925-210.26 103.418-210.018 103.91-209.706 104.435-209.32 104.995-208.541 106.155-207.24 106.991-205.422 107.5-203.603 108.01-201.721 108.026-199.773 107.548-198.422 107.215-197.288 106.768-196.371 106.205-195.467 105.689-194.848 105.075-194.515 104.361-193.642 104.417-192.976 104.632-192.524 105.005-192.071 105.376-191.777 105.795-191.641 106.259L-191.494 106.763-191.541 107.111-190.734 106.846-189.257 106.483-187.985 106.169-187.297 106.002-187.367 105.511C-187.435 105.28-187.498 105.103-187.557 104.983-187.617 104.861-187.754 104.687-187.969 104.459-188.183 104.23-188.675 103.973-189.445 103.69L-191.136 103.193-192.889 102.746C-192.755 102.443-192.651 102.172-192.571 101.941-192.493 101.706-192.433 101.449-192.391 101.168L-192.297 99.726C-191.891 101.113-191.293 102.133-190.502 102.784-189.711 103.434-188.834 103.639-187.871 103.404-187.114 103.216-186.554 102.742-186.189 101.976-185.825 101.209-185.758 100.428-185.991 99.629-185.576 100.542-185.058 101.286-184.435 101.866-183.812 102.445-182.94 102.596-181.817 102.32-179.914 101.854-178.901 100.59-178.779 98.532-178.656 96.473-178.936 94.271-179.621 91.927M-222.297 107.252C-222.347 106.862-222.401 106.562-222.452 106.348-222.507 106.135-222.634 105.788-222.844 105.306L-230.082 106.123C-232.048 106.343-233.605 106.13-234.751 105.475-235.896 104.82-236.581 103.631-236.809 101.912-236.987 100.59-236.864 99.545-236.44 98.779-236.017 98.013-235.409 97.419-234.617 97-233.824 96.583-233.13 96.279-232.535 96.102L-231.032 95.801C-230.703 95.764-230.362 95.726-230.009 95.686-229.483 95.692-228.957 95.688-228.435 95.673-227.91 95.659-227.358 95.711-226.781 95.833-226.203 95.953-225.321 96.254-224.133 96.734L-224.339 95.475-224.469 94.766-224.511 93.914C-225.457 93.452-226.634 93.14-228.04 92.98-229.448 92.822-230.551 92.787-231.353 92.877-231.727 92.57-231.945 92.197-232 91.766-232.069 91.269-231.874 90.803-231.419 90.37-230.963 89.933-230.218 89.656-229.181 89.54-228.312 89.443-227.531 89.508-226.842 89.737-226.157 89.967-225.762 90.448-225.666 91.183L-224.993 91.107-224.283 91.061-223.366 90.958-222.519 90.862C-222.605 90.214-222.906 89.606-223.424 89.038-223.942 88.473-224.581 88.034-225.338 87.725-226.097 87.417-226.87 87.224-227.656 87.148-228.443 87.072-229.237 87.08-230.037 87.169-230.296 87.198-230.636 87.247-231.056 87.318-231.477 87.386-231.954 87.484-232.488 87.609-233.523 87.725-234.493 88.242-235.398 89.155-236.225 89.95-236.575 90.812-236.45 91.741-236.337 92.583-235.859 93.308-235.013 93.914-236.825 94.119-238.391 94.921-239.709 96.319-241.028 97.718-241.69 98.921-241.698 99.932-241.655 100.257-241.624 100.586-241.6 100.923-241.581 101.26-241.597 101.499-241.649 101.637L-241.571 102.219C-241.313 104.143-240.616 105.751-239.472 107.048-238.333 108.345-236.999 108.985-235.471 108.967L-235.644 109.546C-235.656 109.832-235.701 110.11-235.785 110.383-236.239 110.74-237.07 111.133-238.28 111.553-239.491 111.973-240.459 112.226-241.188 112.308-242.885 112.499-244.529 112.498-246.12 112.304-247.708 112.112-248.874 111.662-249.614 110.955-247.166 110.679-245.411 110.092-244.354 109.194-243.292 108.295-242.751 107.199-242.728 105.902L-242.774 103.409-242.94 102.177C-243.041 101.421-243.343 100.402-243.851 99.123-244.356 97.839-245.224 96.995-246.445 96.585-247.672 96.175-248.627 96.008-249.309 96.085-250.204 96.186-250.875 96.427-251.328 96.806-251.779 97.185-252.11 97.65-252.323 98.2L-252.675 99.589C-253.045 98.798-253.568 98.132-254.25 97.595-254.932 97.058-255.672 96.834-256.472 96.924-257.79 97.073-258.764 97.607-259.396 98.522-260.026 99.436-260.267 100.445-260.119 101.546L-259.908 102.313-261.569 102.5-261.152 105.758-256.69 109.593C-257.178 109.51-257.594 109.485-257.947 109.524-259.307 109.679-259.881 110.566-259.664 112.187-260.203 111.722-260.797 110.821-261.441 109.492-262.084 108.16-262.472 107.009-262.601 106.037L-262.674 105.487-264.087 105.646C-263.993 106.336-263.87 107.008-263.712 107.659-263.551 108.309-263.326 109.024-263.03 109.802-262.52 111.281-261.886 112.448-261.127 113.311-260.756 113.933-260.112 114.606-259.19 115.329-258.269 116.053-257.365 116.462-256.48 116.565-255.595 116.663-254.916 116.684-254.445 116.631-253.48 116.521-252.723 116.284-252.177 115.909-251.552 115.571-251.128 115.221-250.903 114.849-250.677 114.48-250.512 114.066-250.405 113.61-249.282 114.34-247.861 114.821-246.143 115.055-244.429 115.289-243.017 115.343-241.911 115.219-239.581 114.956-237.97 114.588-237.076 114.115-236.131 113.678-235.214 113.039-234.324 112.193-233.763 112.634-233.069 112.994-232.242 113.274-231.418 113.555-230.429 113.628-229.274 113.498-227.345 113.28-226.02 113.001-225.303 112.656-224.582 112.312-223.856 111.661-223.126 110.7-222.393 109.741-222.117 108.592-222.297 107.252M-90.465 217.907C-89.443 203.423-84.224 189.979-75.911 178.606-89.174 166.79-102.438 154.974-115.703 143.158-132.989 162.888-144.106 187.303-146.341 213.954-127.624 215.272-108.73 216.59-90.465 217.907M-110.601 310.215C-97.058 298.122-83.252 285.604-70.325 274.5-80.67 263.163-87.664 249.146-89.889 233.756-89.928 234.365-89.968 234.977-90.02 235.599-108.171 235.614-127.266 235.901-146.126 236.12-143.218 264.436-130.284 290.131-110.601 310.215M-15.771 353.132C-15.034 336.132-14.298 318.772-13.561 302.538-29.215 300.953-43.626 295.509-55.648 287.257-67.519 299.159-80.294 312.517-92.835 325.5-71.312 341.075-44.747 351.089-15.771 353.132M-19.342 144.51C-19.375 128.021-19.409 111.531-19.444 95.041-49.539 97.881-76.871 109.334-98.431 126.64-86.442 139.167-74.452 151.694-62.462 164.221-50.626 154.23-35.781 147.223-19.342 144.51M73.053 223.143C73.053 184.339 38.465 152.77-4.049 152.77-46.562 152.77-81.149 184.339-81.149 223.143-81.149 261.946-46.562 293.515-4.049 293.515 38.465 293.515 73.053 261.946 73.053 223.143M8.666 352.941C37.236 350.491 63.369 340.29 84.51 324.67 72.385 312.064 60.259 299.457 48.133 286.852 36.311 295.109 22.131 300.637 6.703 302.407 7.356 318.595 8.011 335.934 8.666 352.941M102.275 309.057C120.568 289.941 132.816 265.897 136.288 239.427 118.068 237.893 99.849 236.359 81.63 234.826 79.278 249.561 72.552 263.001 62.706 273.98 75.894 285.673 89.085 297.365 102.275 309.057M90.559 127.92C67.772 109.078 38.272 96.879 5.767 94.703 4.39 110.949 3.012 127.195 1.635 143.439 20.241 144.557 37.264 151.113 50.845 161.403 64.083 150.243 77.321 139.081 90.559 127.92M65.733 175.888C74.669 187.083 80.521 200.493 82.117 215.047 100.413 215.248 118.711 215.448 137.008 215.648 135.18 189.355 124.722 165.17 108.192 145.427 94.039 155.58 79.885 165.734 65.733 175.888M261.956 134.74 164.177 215.945C165.742 215.962 167.308 215.979 168.873 215.997 184.023 217.998 182.525 240.456 166.611 241.98 162.763 241.656 158.916 241.332 155.068 241.008 151.248 271.641 137.284 299.465 116.355 321.538 118.743 323.654 121.13 325.771 123.518 327.887 132.549 338.311 115.601 352.907 103.544 344.458 101.58 342.416 99.615 340.374 97.651 338.331 73.227 356.97 42.755 369.083 9.4 371.773 9.55 375.56 9.7 379.303 9.85 382.977 8.495 396.236-14.744 395.985-17.062 382.226-16.907 378.85-16.752 375.419-16.597 371.947-50.362 369.664-81.262 357.72-106.063 339.109-109.353 342.466-112.6 345.755-115.773 348.923-126.904 357.467-143.222 342.277-134.316 331.005-131.164 328.321-127.949 325.535-124.698 322.691-147.32 299.322-162.059 269.331-165.026 236.302-169.935 236.338-174.815 236.365-179.613 236.37-194.001 234.643-192.88 213.337-177.815 211.713-176.346 211.819-174.867 211.925-173.39 212.031L-267.784 133.638C-268.958 133.688-270.131 133.739-271.31 133.778-272.032 118.327-272.754 102.875-273.475 87.419-171.26 74.811-86.355 25.86-24.533-71.525-12.512-78.807-.484-79.024 11.545-72.187 81.983 27.513 166.469 82.875 267.704 85.432 267.943 101.99 268.182 118.546 268.425 135.103 266.256 134.997 264.102 134.874 261.956 134.74" fill="#ffc20d"/>
<path transform="matrix(1,0,0,-1,514.9123,333.56129)" d="M0 0C-.996 .136-2.499-.093-4.507-.691L-5.961-1.125-7.484-1.579C-10.89-2.595-13.123-3.49-14.182-4.264-15.242-5.039-15.513-6.159-14.991-7.631-14.355-9.431-13.114-10.469-11.272-10.744-10.365-10.838-9.356-10.823-8.24-10.698-7.125-10.571-5.925-10.316-4.639-9.932-2.069-9.166-.132-8.118 1.171-6.798 2.474-5.477 2.82-3.955 2.215-2.247 1.736-.885 .994-.134 0 0" fill="#ffc20d"/>
<path transform="matrix(1,0,0,-1,557.5782,319.4408)" d="M0 0C-1.082 .245-2.172 .278-3.271 .101-4.392-.081-5.16-.403-5.576-.869-5.402-.906-5.231-1.028-5.072-1.234-4.912-1.44-4.807-1.673-4.759-1.93-4.717-2.143-4.727-2.346-4.788-2.532L1.974-1.436C1.701-.774 1.045-.294 0 0" fill="#ffc20d"/>
<path transform="matrix(1,0,0,-1,514.4085,330.5531)" d="M0 0-.021 .37C-.257 1.039-.659 1.404-1.233 1.468L-2.442 1.503-3.083 1.311C-3.872 1.075-4.44 .702-4.779 .186-5.024-.253-5.032-.792-4.805-1.433Z" fill="#ffc20d"/>
<path transform="matrix(1,0,0,-1,449.6374,355.7608)" d="M0 0C.226-.359 .24-.69 .048-.991L7.226 2.812C6.759 3.556 5.854 3.786 4.515 3.497 3.176 3.21 1.79 2.683 .353 1.921L-.664 1.381-1.407 .799C-.732 .68-.261 .414 0 0" fill="#ffc20d"/>
<path transform="matrix(1,0,0,-1,476.9263,342.9298)" d="M0 0C.095-.198 .139-.396 .129-.59L6.499 2.013C6.191 2.649 5.48 2.99 4.369 3.036 3.232 3.025 2.133 2.802 1.07 2.368-.012 1.926-.728 1.42-1.074 .847-.893 .85-.696 .77-.489 .606-.278 .441-.117 .238 0 0" fill="#ffc20d"/>
<path transform="matrix(1,0,0,-1,554.0652,317.3224)" d="M0 0C.466 .074 .901 .135 1.302 .176 1.704 .22 2.173 .245 2.714 .256 3.253 .266 3.893 .165 4.631-.047 5.22 .402 5.456 .928 5.341 1.527 5.221 2.149 4.625 2.627 3.549 2.961 3.04 3.1 2.372 3.169 1.541 3.166 .711 3.163-.23 3.078-1.282 2.909-2.73 2.673-3.917 2.249-4.848 1.635-5.779 1.02-6.186 .424-6.075-.155-5.968-.712-5.311-1.127-4.104-1.394-3.632-1.096-3.026-.822-2.292-.57-1.558-.319-.794-.129 0 0" fill="#ffc20d"/>
<path transform="matrix(1,0,0,-1,396.8014,393.1622)" d="M0 0-.246 .374C-.756 .859-1.282 1.014-1.823 .837L-2.913 .371-3.399-.06C-3.996-.59-4.326-1.155-4.387-1.754-4.398-2.246-4.145-2.736-3.635-3.22Z" fill="#ffc20d"/>
<path transform="matrix(1,0,0,-1,500.7365,333.6704)" d="M0 0C.153-.435 .098-.771-.165-1.01L2.913-.092C2.755 .352 2.579 .689 2.385 .918 2.193 1.152 1.927 1.319 1.591 1.421 .922 1.621 .215 1.609-.528 1.388L-1.294 1.119C-.651 .99-.222 .623 0 0" fill="#ffc20d"/>
<path transform="matrix(1,0,0,-1,387.682,399.655)" d="M0 0C-.289 .136-.614 .183-.966 .142-1.672 .063-2.306-.228-2.868-.727L-3.383-1.32C-2.742-1.176-2.176-1.339-1.682-1.808-1.336-2.138-1.225-2.462-1.347-2.784L.982-.719C.619-.374 .292-.135 0 0" fill="#ffc20d"/>
<path transform="matrix(1,0,0,-1,398.6402,395.6162)" d="M0 0C-.96-.278-2.2-1.089-3.72-2.433L-4.819-3.409-5.969-4.43C-8.547-6.712-10.126-8.416-10.711-9.539-11.292-10.66-11-11.776-9.831-12.889-8.396-14.251-6.786-14.684-4.999-14.19-4.139-13.911-3.239-13.492-2.295-12.928-1.354-12.366-.397-11.654 .573-10.793 2.52-9.068 3.76-7.35 4.301-5.637 4.839-3.925 4.425-2.418 3.065-1.125 1.982-.097 .958 .282 0 0" fill="#ffc20d"/>
<path transform="matrix(1,0,0,-1,92.7765,407.7743)" d="M0 0 1.104-9.749C-2.614-10.337-5.333-11.513-7.08-13.299-8.827-15.085-9.694-17.494-9.694-20.525-9.694-23.728-8.919-26.148-7.369-27.773-5.819-29.398-4.006-30.216-1.931-30.216-.591-30.216 .539-29.871 1.484-29.191 2.417-28.511 3.232-27.312 3.915-25.607 4.388-24.443 5.202-21.792 6.384-17.644 7.908-12.308 9.773-8.563 11.993-6.407 15.107-3.377 18.903-1.867 23.383-1.867 26.259-1.867 28.965-2.582 31.474-3.999 33.984-5.428 35.888-7.479 37.202-10.164 38.515-12.849 39.172-16.076 39.172-19.879 39.172-26.068 37.609-30.735 34.469-33.858 31.33-36.993 27.152-38.629 21.911-38.79L21.517-28.764C24.433-28.338 26.522-27.428 27.796-26.033 29.07-24.639 29.714-22.541 29.714-19.753 29.714-16.872 29.031-14.613 27.665-12.988 26.785-11.939 25.616-11.409 24.144-11.409 22.805-11.409 21.662-11.905 20.716-12.896 19.494-14.152 18.233-17.206 16.92-22.057 15.619-26.909 14.253-30.493 12.861-32.809 11.455-35.137 9.55-36.958 7.12-38.272 4.69-39.586 1.695-40.243-1.865-40.243-5.097-40.243-8.131-39.459-10.955-37.88-13.779-36.301-15.881-34.077-17.247-31.196-18.627-28.315-19.31-24.72-19.31-20.421-19.31-14.163-17.668-9.358-14.371-6.004-11.087-2.651-6.292-.657 0 0" fill="#ffc20d"/>
<path transform="matrix(1,0,0,-1,95.2988,488.19)" d="M0 0-3.389-9.68C-9.603-8.194-14.213-5.716-17.234-2.259-20.243 1.198-21.753 5.578-21.753 10.89-21.753 17.471-19.192 22.875-14.069 27.117-8.946 31.346-1.944 33.466 6.949 33.466 16.341 33.466 23.645 31.334 28.847 27.082 34.049 22.829 36.65 17.229 36.65 10.291 36.65 4.229 34.601-.691 30.515-4.471 28.098-6.73 24.63-8.413 20.099-9.542L17.419 .346C20.335 .933 22.647 2.155 24.341 4.01 26.036 5.877 26.876 8.136 26.876 10.787 26.876 14.463 25.379 17.448 22.371 19.729 19.376 22.023 14.515 23.164 7.79 23.164 .67 23.164-4.413 22.034-7.435 19.787-10.469 17.528-11.98 14.601-11.98 10.994-11.98 8.332-11.021 6.039-9.09 4.126-7.159 2.213-4.138 .83 0 0" fill="#ffc20d"/>
<path transform="matrix(1,0,0,-1,0,864)" d="M74.491 357.89H130.923V347.864H74.491Z" fill="#ffc20d"/>
<path transform="matrix(1,0,0,-1,74.4914,525.6666)" d="M0 0H56.432V-36.647H46.896V-10.026H34.364V-34.78H24.827V-10.026H9.537V-37.615H0Z" fill="#ffc20d"/>
<path transform="matrix(1,0,0,-1,74.4914,571.78628)" d="M0 0H56.432V-9.703L18.614-30.078H56.432V-39.344H0V-29.329L37.096-9.265H0Z" fill="#ffc20d"/>
<path transform="matrix(1,0,0,-1,95.2988,653.3889)" d="M0 0-3.389-9.68C-9.603-8.194-14.213-5.716-17.234-2.259-20.243 1.198-21.753 5.578-21.753 10.89-21.753 17.471-19.192 22.876-14.069 27.117-8.946 31.346-1.944 33.466 6.949 33.466 16.341 33.466 23.645 31.334 28.847 27.082 34.049 22.829 36.65 17.229 36.65 10.291 36.65 4.229 34.601-.691 30.515-4.471 28.098-6.73 24.63-8.413 20.099-9.542L17.419 .346C20.335 .933 22.647 2.155 24.341 4.01 26.036 5.877 26.876 8.136 26.876 10.787 26.876 14.463 25.379 17.447 22.371 19.729 19.376 22.023 14.515 23.163 7.79 23.163 .67 23.163-4.413 22.034-7.435 19.787-10.469 17.528-11.98 14.601-11.98 10.994-11.98 8.332-11.021 6.039-9.09 4.126-7.159 2.213-4.138 .83 0 0" fill="#ffc20d"/>
<path transform="matrix(1,0,0,-1,74.4914,671.6548)" d="M0 0H56.432V-36.647H46.896V-10.026H34.364V-34.78H24.827V-10.026H9.537V-37.615H0Z" fill="#ffc20d"/>
<path transform="matrix(1,0,0,-1,202.0575,809.0042)" d="M0 0 9.68-3.201C8.194-9.071 5.716-13.427 2.259-16.281-1.199-19.122-5.578-20.549-10.89-20.549-17.47-20.549-22.875-18.13-27.116-13.29-31.345-8.451-33.466-1.837-33.466 6.564-33.466 15.437-31.334 22.337-27.082 27.25-22.829 32.165-17.229 34.621-10.291 34.621-4.229 34.621 .691 32.686 4.471 28.826 6.73 26.543 8.413 23.267 9.542 18.986L-.346 16.455C-.933 19.209-2.155 21.393-4.01 22.994-5.877 24.595-8.136 25.389-10.787 25.389-14.463 25.389-17.447 23.974-19.729 21.133-22.023 18.303-23.164 13.712-23.164 7.359-23.164 .633-22.034-4.169-19.787-7.024-17.528-9.89-14.601-11.317-10.994-11.317-8.332-11.317-6.039-10.411-4.125-8.587-2.213-6.763-.83-3.909 0 0" fill="#ffc20d"/>
<path transform="matrix(1,0,0,-1,218.2487,802.328)" d="M0 0C0 5.435 .761 10.002 2.27 13.7 3.388 16.417 4.933 18.862 6.88 21.021 8.828 23.18 10.96 24.781 13.276 25.836 16.364 27.238 19.925 27.945 23.959 27.945 31.265 27.945 37.096 25.5 41.487 20.624 45.866 15.735 48.055 8.947 48.055 .248 48.055-8.376 45.878-15.127 41.533-19.991 37.188-24.868 31.369-27.3 24.097-27.3 16.733-27.3 10.867-24.88 6.523-20.028 2.178-15.189 0-8.513 0 0M10.303 .36C10.303-5.684 11.605-10.262 14.198-13.389 16.791-16.504 20.087-18.068 24.074-18.068 28.073-18.068 31.345-16.517 33.916-13.427 36.474-10.324 37.753-5.684 37.753 .509 37.753 6.626 36.508 11.193 34.008 14.196 31.518 17.211 28.211 18.713 24.074 18.713 19.948 18.713 16.618 17.186 14.094 14.146 11.57 11.094 10.303 6.502 10.303 .36" fill="#ffc20d"/>
<path transform="matrix(1,0,0,-1,274.3826,828.6602)" d="M0 0V52.863H10.026V9.009H34.849V0Z" fill="#ffc20d"/>
<path transform="matrix(1,0,0,-1,316.6183,828.6602)" d="M0 0V52.863H10.026V9.009H34.849V0Z" fill="#ffc20d"/>
<path transform="matrix(1,0,0,-1,358.5776,828.6602)" d="M0 0V53.31H36.646V44.3H10.026V32.462H34.78V23.453H10.026V9.009H37.615V0Z" fill="#ffc20d"/>
<path transform="matrix(1,0,0,-1,427.7222,809.0787)" d="M0 0V9.009H21.504V-12.26C19.418-14.456 16.387-16.38 12.411-18.055 8.447-19.718 4.425-20.549 .346-20.549-4.829-20.549-9.335-19.383-13.184-17.038-17.021-14.692-19.914-11.33-21.85-6.974-23.786-2.618-24.754 2.134-24.754 7.26-24.754 12.819-23.67 17.757-21.516 22.088-19.349 26.407-16.191 29.732-12.031 32.04-8.851 33.815-4.909 34.696-.185 34.696 5.958 34.696 10.763 33.306 14.221 30.527 17.666 27.734 19.891 23.9 20.882 18.986L10.925 16.976C10.233 19.594 8.919 21.666 6.995 23.193 5.082 24.706 2.685 25.464-.196 25.464-4.552 25.464-8.021 23.975-10.591 20.984-13.161 17.993-14.451 13.563-14.451 7.694-14.451 1.353-13.149-3.4-10.545-6.564-7.929-9.729-4.517-11.317-.288-11.317 1.798-11.317 3.895-10.87 5.992-9.989 8.101-9.108 9.899-8.029 11.409-6.763V0Z" fill="#ffc20d"/>
<path transform="matrix(1,0,0,-1,458.4798,828.6602)" d="M0 0V53.31H36.646V44.3H10.026V32.462H34.78V23.453H10.026V9.009H37.615V0Z" fill="#ffc20d"/>
</g>
</g>
</svg>
